<?xml version="1.0" encoding="iso-8859-1"?>
<!-- Generator: Adobe Illustrator 27.0.0, SVG Export Plug-In . SVG Version: 6.00 Build 0)  -->
<svg version="1.1" id="Layer_1" xmlns="http://www.w3.org/2000/svg" xmlns:xlink="http://www.w3.org/1999/xlink" x="0px" y="0px"
	 viewBox="0 0 500 500" style="enable-background:new 0 0 500 500;" xml:space="preserve">
<g id="watermark_1_">
	<g>
		<g id="watermark" style="opacity:0.61;">
			<g>
				<g>
					<g>
						<g>
							<polygon style="fill:#FFFFFF;" points="213.765,461.172 208.204,474.017 205.268,474.017 199.726,461.172 202.938,461.172 
								206.846,470.347 210.81,461.172 							"/>
						</g>
						<g>
							<path style="fill:#FFFFFF;" d="M223.507,469.741h-7.469c0.275,1.23,1.321,1.982,2.826,1.982c1.046,0,1.798-0.312,2.477-0.954
								l1.523,1.651c-0.917,1.046-2.294,1.597-4.074,1.597c-3.413,0-5.634-2.147-5.634-5.083c0-2.954,2.257-5.083,5.267-5.083
								c2.899,0,5.138,1.945,5.138,5.12C223.562,469.191,223.526,469.503,223.507,469.741 M216.002,468.071h4.863
								c-0.202-1.248-1.138-2.055-2.422-2.055C217.139,466.016,216.204,466.805,216.002,468.071"/>
						</g>
						<g>
							<path style="fill:#FFFFFF;" d="M224.735,468.934c0-2.973,2.294-5.083,5.505-5.083c2.074,0,3.707,0.899,4.423,2.514
								l-2.22,1.193c-0.532-0.936-1.321-1.358-2.221-1.358c-1.45,0-2.587,1.009-2.587,2.734c0,1.725,1.138,2.734,2.587,2.734
								c0.899,0,1.688-0.404,2.221-1.358l2.22,1.211c-0.716,1.578-2.349,2.495-4.423,2.495
								C227.029,474.017,224.735,471.907,224.735,468.934"/>
						</g>
						<g>
							<path style="fill:#FFFFFF;" d="M242.828,473.393c-0.587,0.422-1.45,0.624-2.331,0.624c-2.33,0-3.688-1.193-3.688-3.542
								v-4.055h-1.523v-2.202h1.523v-2.404h2.863v2.404h2.459v2.202h-2.459v4.019c0,0.844,0.458,1.303,1.229,1.303
								c0.422,0,0.844-0.128,1.156-0.367L242.828,473.393z"/>
						</g>
					</g>
					<g>
						<path style="fill:#FFFFFF;" d="M262.474,463.997v2.643c-0.238-0.018-0.422-0.037-0.642-0.037
							c-1.578,0-2.624,0.862-2.624,2.753v4.661h-2.863v-9.873h2.734v1.303C259.776,464.493,260.951,463.997,262.474,463.997"/>
					</g>
					<g>
						<path style="fill:#FFFFFF;" d="M263.299,472.53l1.009-2.239c1.083,0.789,2.697,1.339,4.239,1.339
							c1.762,0,2.477-0.587,2.477-1.376c0-2.404-7.469-0.752-7.469-5.524c0-2.184,1.762-4,5.413-4c1.615,0,3.267,0.385,4.459,1.138
							l-0.918,2.257c-1.193-0.679-2.422-1.009-3.56-1.009c-1.761,0-2.44,0.66-2.44,1.468c0,2.367,7.468,0.734,7.468,5.45
							c0,2.147-1.78,3.982-5.45,3.982C266.492,474.017,264.437,473.411,263.299,472.53"/>
					</g>
					<g>
						<path style="fill:#FFFFFF;" d="M285.428,469.741h-7.469c0.275,1.23,1.321,1.982,2.826,1.982c1.046,0,1.798-0.312,2.477-0.954
							l1.523,1.651c-0.918,1.046-2.294,1.597-4.074,1.597c-3.413,0-5.634-2.147-5.634-5.083c0-2.954,2.257-5.083,5.267-5.083
							c2.9,0,5.138,1.945,5.138,5.12C285.484,469.191,285.447,469.503,285.428,469.741 M277.923,468.071h4.863
							c-0.202-1.248-1.138-2.055-2.422-2.055C279.061,466.016,278.125,466.805,277.923,468.071"/>
					</g>
					<g>
						<path style="fill:#FFFFFF;" d="M297.007,469.741h-7.469c0.275,1.23,1.321,1.982,2.826,1.982c1.046,0,1.798-0.312,2.477-0.954
							l1.523,1.651c-0.918,1.046-2.294,1.597-4.074,1.597c-3.413,0-5.634-2.147-5.634-5.083c0-2.954,2.257-5.083,5.267-5.083
							c2.899,0,5.138,1.945,5.138,5.12C297.062,469.191,297.025,469.503,297.007,469.741 M289.501,468.071h4.863
							c-0.202-1.248-1.138-2.055-2.422-2.055C290.639,466.016,289.703,466.805,289.501,468.071"/>
					</g>
					<g>
						<polygon style="fill:#FFFFFF;" points="303.208,470.145 301.831,471.503 301.831,474.017 298.969,474.017 298.969,460.401 
							301.831,460.401 301.831,468.108 306.016,464.144 309.429,464.144 305.318,468.328 309.796,474.017 306.327,474.017 						"/>
					</g>
					<g>
						<path style="fill:#FFFFFF;" d="M256.601,475.359L256.601,475.359l-2.86-2.86c-0.435,0.508-0.953,0.943-1.534,1.284
							c-0.092,0.069-0.186,0.136-0.283,0.199l3.027,3.027c0.456,0.456,1.195,0.456,1.65,0
							C257.057,476.554,257.057,475.815,256.601,475.359"/>
					</g>
					<g>
						<path style="fill:#FFFFFF;" d="M249.984,463.244c0.221-0.173,0.495-0.281,0.797-0.281c0.042,0,0.083,0.002,0.124,0.006
							c-0.214-0.156-0.478-0.249-0.764-0.249c-0.395,0-0.744,0.18-0.981,0.458c-0.051,0-0.1,0.006-0.151,0.008
							c0.039-0.077,0.064-0.162,0.064-0.255c0-0.234-0.143-0.434-0.346-0.519c0.087,0.126,0.138,0.279,0.138,0.445
							c0,0.122-0.031,0.237-0.081,0.341c-2.811,0.201-5.03,2.539-5.03,5.4c0,2.993,2.426,5.42,5.42,5.42
							c2.993,0,5.42-2.426,5.42-5.42C254.595,465.879,252.593,463.635,249.984,463.244 M247.983,464.656
							c0.435,0,0.844,0.112,1.199,0.309c0.374-0.245,0.82-0.387,1.299-0.387c0.711,0,1.348,0.312,1.784,0.806
							c-0.435-0.379-1.004-0.61-1.627-0.61c-0.449,0-0.87,0.12-1.234,0.329c-0.079,0.046-0.156,0.096-0.229,0.15
							c-0.065-0.048-0.133-0.093-0.204-0.134c-0.369-0.219-0.8-0.344-1.26-0.344c-0.3,0-0.588,0.054-0.854,0.152
							C247.196,464.754,247.578,464.656,247.983,464.656 M251.772,469.098c0.115,0.305,0.181,0.634,0.181,0.979
							c0,1.534-1.244,2.777-2.778,2.777c-1.534,0-2.777-1.243-2.777-2.777c0-0.345,0.066-0.674,0.181-0.979
							c-0.62-0.382-1.035-1.064-1.035-1.846c0-1.197,0.971-2.168,2.168-2.168c0.565,0,1.078,0.218,1.463,0.572
							c0.386-0.354,0.899-0.572,1.464-0.572c1.197,0,2.168,0.971,2.168,2.168C252.807,468.034,252.392,468.716,251.772,469.098"/>
					</g>
					<g>
						<path style="fill:#FFFFFF;" d="M251.666,467.061c0,0.497-0.404,0.901-0.901,0.901c-0.497,0-0.901-0.404-0.901-0.901
							s0.404-0.901,0.901-0.901c0.101,0,0.197,0.017,0.287,0.047c-0.03,0.062-0.045,0.132-0.045,0.204
							c0,0.273,0.221,0.494,0.494,0.494c0.05,0,0.099-0.008,0.146-0.022C251.66,466.941,251.666,467,251.666,467.061"/>
					</g>
					<g>
						<path style="fill:#FFFFFF;" d="M248.255,467.061c0,0.376-0.305,0.681-0.681,0.681c-0.376,0-0.681-0.305-0.681-0.681
							s0.305-0.681,0.681-0.681c0.076,0,0.149,0.013,0.217,0.035c-0.023,0.047-0.034,0.1-0.034,0.155
							c0,0.206,0.167,0.374,0.374,0.374c0.038,0,0.075-0.006,0.11-0.017C248.25,466.97,248.255,467.015,248.255,467.061"/>
					</g>
					<g>
						<g>
							<g>
								<rect x="242.908" y="467.83" style="fill:#FFFFFF;" width="0.616" height="0.616"/>
							</g>
							<g>
								<rect x="254.827" y="467.83" style="fill:#FFFFFF;" width="0.616" height="0.616"/>
							</g>
							<g>
								<path style="fill:#FFFFFF;" d="M255.205,468.082h-0.14c0-3.248-2.642-5.89-5.89-5.89c-3.248,0-5.89,2.642-5.89,5.89h-0.14
									c0-1.611,0.627-3.125,1.766-4.264c1.139-1.139,2.653-1.766,4.264-1.766c1.611,0,3.125,0.627,4.264,1.766
									C254.578,464.957,255.205,466.471,255.205,468.082"/>
							</g>
						</g>
						<g>
							<rect x="248.868" y="461.814" style="fill:#FFFFFF;" width="0.616" height="0.616"/>
						</g>
						<g>
							<rect x="244.95" y="462.052" style="fill:#FFFFFF;" width="8.45" height="0.14"/>
						</g>
						<g>
							<path style="fill:#FFFFFF;" d="M245.174,462.15c0,0.108-0.088,0.196-0.196,0.196c-0.108,0-0.196-0.088-0.196-0.196
								c0-0.108,0.088-0.196,0.196-0.196C245.086,461.954,245.174,462.042,245.174,462.15"/>
						</g>
						<g>
							<path style="fill:#FFFFFF;" d="M253.596,462.15c0,0.108-0.088,0.196-0.196,0.196c-0.108,0-0.196-0.088-0.196-0.196
								c0-0.108,0.088-0.196,0.196-0.196C253.509,461.954,253.596,462.042,253.596,462.15"/>
						</g>
					</g>
				</g>
				<g>
					<path style="fill:#FFFFFF;" d="M314.356,473.409c0,1.559-2.364,1.559-2.364,0C311.993,471.851,314.356,471.851,314.356,473.409
						z"/>
				</g>
				<g>
					<g>
						<g>
							<path style="fill:#FFFFFF;" d="M161.739,466.549l1.772,6.088l1.855-6.088h2.215l-2.823,8.14h-2.33l-0.837-2.396l-0.722-2.708
								l-0.722,2.708l-0.837,2.396h-2.33l-2.839-8.14h2.231l1.855,6.088l1.756-6.088H161.739z"/>
						</g>
						<g>
							<path style="fill:#FFFFFF;" d="M176.713,466.549l1.772,6.088l1.855-6.088h2.215l-2.823,8.14h-2.33l-0.837-2.396l-0.722-2.708
								l-0.722,2.708l-0.837,2.396h-2.33l-2.839-8.14h2.231l1.855,6.088l1.756-6.088H176.713z"/>
						</g>
						<g>
							<path style="fill:#FFFFFF;" d="M191.687,466.549l1.772,6.088l1.855-6.088h2.215l-2.823,8.14h-2.33l-0.837-2.396l-0.722-2.708
								l-0.722,2.708l-0.837,2.396h-2.33l-2.839-8.14h2.231l1.855,6.088l1.756-6.088H191.687z"/>
						</g>
					</g>
					<g>
						<path style="fill:#FFFFFF;" d="M200.908,473.52c0,1.559-2.364,1.559-2.364,0C198.545,471.962,200.908,471.962,200.908,473.52z
							"/>
					</g>
					<g>
						<path style="fill:#FFFFFF;" d="M322.71,473.409c-0.935,0.919-1.919,1.28-3.117,1.28c-2.346,0-4.3-1.411-4.3-4.282
							s1.953-4.284,4.3-4.284c1.149,0,2.035,0.329,2.921,1.199l-1.264,1.329c-0.476-0.428-1.066-0.64-1.623-0.64
							c-1.346,0-2.33,0.985-2.33,2.396c0,1.542,1.05,2.362,2.297,2.362c0.64,0,1.28-0.18,1.772-0.672L322.71,473.409z"/>
					</g>
					<g>
						<path style="fill:#FFFFFF;" d="M331.805,470.472c0,2.33-1.591,4.217-4.217,4.217c-2.626,0-4.201-1.887-4.201-4.217
							c0-2.314,1.609-4.217,4.185-4.217C330.149,466.255,331.805,468.158,331.805,470.472z M325.389,470.472
							c0,1.231,0.739,2.38,2.199,2.38c1.46,0,2.199-1.149,2.199-2.38c0-1.215-0.854-2.396-2.199-2.396
							C326.144,468.077,325.389,469.258,325.389,470.472z"/>
					</g>
					<g>
						<path style="fill:#FFFFFF;" d="M338.572,474.689v-4.332c0-1.068-0.559-2.035-1.658-2.035c-1.082,0-1.722,0.967-1.722,2.035
							v4.332h-2.003v-8.107h1.855l0.148,0.985c0.426-0.82,1.362-1.116,2.133-1.116c0.969,0,1.937,0.394,2.396,1.51
							c0.723-1.149,1.658-1.478,2.708-1.478c2.297,0,3.43,1.412,3.43,3.84v4.365h-2.003v-4.365c0-1.066-0.442-1.97-1.526-1.97
							c-1.082,0-1.756,0.935-1.756,2.003v4.332H338.572z"/>
					</g>
				</g>
			</g>
		</g>
		<g style="opacity:0.61;">
			<g>
				<g>
					<path style="fill:#FFFFFF;" d="M345.988,431.299c-0.006-1.224-0.959-2.121-2.189-2.14c-0.924-0.014-0.832,0.12-0.834-0.867
						c-0.003-1.097-0.007-2.194,0.003-3.292c0.003-0.379-0.112-0.691-0.362-0.976c-2.342-2.668-4.678-5.342-7.019-8.011
						c-0.12-0.137-0.275-0.244-0.414-0.366c-6.214,0-12.427,0-18.641,0c-0.794,0.293-1.14,0.868-1.138,1.709
						c0.01,3.748,0.004,7.496,0.004,11.243c0,0.556-0.003,0.589-0.55,0.551c-1.497-0.102-2.516,0.986-2.497,2.492
						c0.044,3.476,0.013,6.953,0.014,10.429c0.001,1.58,0.867,2.443,2.45,2.449c0.582,0.002,0.582,0.002,0.582,0.6
						c0,2.219-0.001,4.438,0.001,6.657c0.001,1.192,0.58,1.771,1.768,1.771c8.013,0.001,16.027,0.001,24.04,0
						c1.168,0,1.755-0.583,1.757-1.745c0.002-2.256,0-4.512,0.001-6.768c0-0.512,0.002-0.511,0.52-0.515
						c0.271-0.002,0.541,0.008,0.809-0.058c0.996-0.246,1.69-1.044,1.694-2.069C346.003,438.696,346.005,434.997,345.988,431.299z
						 M317.537,417.162c5.337,0,10.674,0,16.01,0c0.548,0,0.554,0.007,0.554,0.561c0.001,2.243-0.001,4.486,0.001,6.73
						c0.001,0.811,0.249,1.059,1.06,1.059c1.91,0.001,3.821,0,5.731,0.001c0.458,0,0.479,0.021,0.481,0.483
						c0.003,0.887,0.002,1.775,0,2.662c-0.001,0.477-0.024,0.498-0.504,0.499c-3.895,0.001-7.79,0-11.684,0
						c-3.882,0-7.765,0-11.647,0c-0.55,0-0.552-0.001-0.552-0.561c-0.001-3.624-0.001-7.247,0-10.871
						C316.987,417.166,316.991,417.162,317.537,417.162z M340.822,451.579c-3.883,0.001-7.766,0-11.65,0c-3.871,0-7.742,0-11.613,0
						c-0.572,0-0.574-0.002-0.574-0.579c-0.001-1.997-0.001-3.994,0.001-5.991c0-0.464,0.023-0.486,0.478-0.487
						c7.803-0.001,15.607-0.001,23.41,0c0.478,0,0.499,0.02,0.499,0.503c0.002,1.997,0.001,3.994,0,5.991
						C341.375,451.574,341.37,451.579,340.822,451.579z"/>
				</g>
				<g>
					<g>
						<rect x="327.418" y="417.053" style="fill:#FFFFFF;" width="1.757" height="1.054"/>
					</g>
					<g>
						<rect x="325.662" y="418.107" style="fill:#FFFFFF;" width="1.757" height="1.054"/>
					</g>
					<g>
						<rect x="327.418" y="419.161" style="fill:#FFFFFF;" width="1.757" height="1.054"/>
					</g>
					<g>
						<rect x="325.662" y="420.215" style="fill:#FFFFFF;" width="1.757" height="1.054"/>
					</g>
					<g>
						<rect x="327.418" y="421.269" style="fill:#FFFFFF;" width="1.757" height="1.054"/>
					</g>
					<g>
						<rect x="325.662" y="422.323" style="fill:#FFFFFF;" width="1.757" height="1.054"/>
					</g>
					<g>
						<rect x="327.418" y="423.378" style="fill:#FFFFFF;" width="1.757" height="1.054"/>
					</g>
					<g>
						<rect x="325.662" y="424.432" style="fill:#FFFFFF;" width="1.757" height="1.054"/>
					</g>
					<g>
						<rect x="327.418" y="425.486" style="fill:#FFFFFF;" width="1.757" height="1.054"/>
					</g>
					<g>
						<rect x="325.662" y="426.54" style="fill:#FFFFFF;" width="1.757" height="1.054"/>
					</g>
					<g>
						<rect x="327.418" y="427.594" style="fill:#FFFFFF;" width="1.757" height="1.054"/>
					</g>
					<g>
						<rect x="325.662" y="428.648" style="fill:#FFFFFF;" width="1.757" height="1.054"/>
					</g>
				</g>
			</g>
			<g>
				<path style="fill:#FFFFFF;" d="M187.637,431.299c-0.006-1.224-0.959-2.121-2.189-2.14c-0.924-0.014-0.832,0.12-0.834-0.867
					c-0.003-1.097-0.007-2.194,0.003-3.292c0.003-0.379-0.112-0.691-0.362-0.976c-2.342-2.668-4.678-5.342-7.019-8.011
					c-0.12-0.137-0.275-0.244-0.414-0.366c-6.214,0-12.427,0-18.641,0c-0.794,0.293-1.14,0.868-1.138,1.709
					c0.01,3.748,0.004,7.496,0.004,11.243c0,0.556-0.003,0.589-0.55,0.551c-1.497-0.102-2.516,0.986-2.497,2.492
					c0.044,3.476,0.013,6.953,0.014,10.429c0.001,1.58,0.867,2.443,2.45,2.449c0.582,0.002,0.582,0.002,0.582,0.6
					c0,2.219-0.001,4.438,0.001,6.657c0.001,1.192,0.58,1.771,1.768,1.771c8.013,0.001,16.027,0.001,24.04,0
					c1.168,0,1.755-0.583,1.757-1.745c0.002-2.256,0-4.512,0.001-6.768c0-0.512,0.002-0.511,0.52-0.515
					c0.271-0.002,0.541,0.008,0.809-0.058c0.996-0.246,1.69-1.044,1.694-2.069C187.652,438.696,187.655,434.997,187.637,431.299z
					 M159.187,417.162c5.337,0,10.674,0,16.01,0c0.548,0,0.554,0.007,0.554,0.561c0.001,2.243-0.001,4.486,0.001,6.73
					c0.001,0.811,0.249,1.059,1.06,1.059c1.91,0.001,3.821,0,5.731,0.001c0.458,0,0.479,0.021,0.481,0.483
					c0.003,0.887,0.002,1.775,0,2.662c-0.001,0.477-0.024,0.498-0.504,0.499c-3.895,0.001-7.79,0-11.684,0
					c-3.882,0-7.765,0-11.647,0c-0.55,0-0.552-0.001-0.552-0.561c-0.001-3.624-0.001-7.247,0-10.871
					C158.636,417.166,158.64,417.162,159.187,417.162z M182.472,451.579c-3.883,0.001-7.766,0-11.65,0c-3.871,0-7.742,0-11.613,0
					c-0.572,0-0.574-0.002-0.574-0.579c-0.001-1.997-0.001-3.994,0.001-5.991c0-0.464,0.023-0.486,0.478-0.487
					c7.803-0.001,15.607-0.001,23.41,0c0.478,0,0.499,0.02,0.499,0.503c0.002,1.997,0.001,3.994,0,5.991
					C183.024,451.574,183.019,451.579,182.472,451.579z"/>
			</g>
			<g>
				<path style="fill:#FFFFFF;" d="M159.779,440.669v-7.897h2.779c0.375,0,0.726,0.061,1.053,0.182
					c0.327,0.121,0.612,0.292,0.855,0.513c0.242,0.221,0.434,0.483,0.573,0.789c0.14,0.305,0.21,0.642,0.21,1.009
					c0,0.375-0.07,0.715-0.21,1.02c-0.14,0.305-0.331,0.568-0.573,0.789c-0.243,0.221-0.528,0.392-0.855,0.513
					c-0.327,0.121-0.678,0.182-1.053,0.182h-1.29v2.901H159.779z M162.58,436.356c0.39,0,0.684-0.111,0.882-0.331
					c0.199-0.22,0.298-0.474,0.298-0.761c0-0.14-0.024-0.276-0.072-0.408c-0.048-0.132-0.121-0.248-0.221-0.347
					c-0.099-0.099-0.223-0.178-0.37-0.237c-0.147-0.059-0.32-0.089-0.518-0.089h-1.312v2.173H162.58z"/>
				<path style="fill:#FFFFFF;" d="M166.308,432.771h1.731l3.177,5.294h0.088l-0.088-1.522v-3.772h1.478v7.897h-1.566l-3.353-5.592
					h-0.088l0.088,1.522v4.07h-1.467V432.771z"/>
				<path style="fill:#FFFFFF;" d="M177.922,436.334h3.872c0.022,0.089,0.04,0.195,0.055,0.32c0.014,0.125,0.022,0.25,0.022,0.375
					c0,0.507-0.077,0.985-0.231,1.434c-0.154,0.449-0.397,0.849-0.728,1.202c-0.353,0.375-0.776,0.666-1.268,0.871
					c-0.493,0.206-1.055,0.309-1.688,0.309c-0.574,0-1.114-0.103-1.622-0.309c-0.507-0.206-0.948-0.492-1.323-0.86
					c-0.375-0.367-0.673-0.803-0.894-1.307c-0.221-0.504-0.331-1.053-0.331-1.649c0-0.595,0.11-1.145,0.331-1.649
					c0.221-0.504,0.518-0.939,0.894-1.307c0.375-0.367,0.816-0.654,1.323-0.86c0.507-0.206,1.048-0.309,1.622-0.309
					c0.64,0,1.211,0.11,1.715,0.331c0.504,0.221,0.935,0.526,1.296,0.915l-1.025,1.004c-0.258-0.272-0.544-0.48-0.861-0.623
					c-0.316-0.143-0.695-0.215-1.136-0.215c-0.361,0-0.703,0.065-1.026,0.193c-0.324,0.129-0.607,0.311-0.85,0.546
					c-0.242,0.235-0.436,0.52-0.579,0.855c-0.143,0.335-0.215,0.708-0.215,1.119c0,0.412,0.072,0.785,0.215,1.12
					c0.143,0.335,0.338,0.62,0.584,0.855c0.246,0.235,0.531,0.418,0.855,0.546c0.323,0.129,0.669,0.193,1.037,0.193
					c0.419,0,0.773-0.061,1.064-0.182c0.29-0.121,0.538-0.278,0.744-0.469c0.148-0.132,0.275-0.3,0.381-0.502
					c0.106-0.202,0.189-0.428,0.248-0.678h-2.482V436.334z"/>
			</g>
			<g>
				<path style="fill:#FFFFFF;" d="M224.019,431.299c-0.006-1.224-0.959-2.121-2.189-2.14c-0.924-0.014-0.832,0.12-0.834-0.867
					c-0.003-1.097-0.007-2.194,0.003-3.292c0.003-0.379-0.112-0.691-0.362-0.976c-2.342-2.668-4.678-5.342-7.019-8.011
					c-0.12-0.137-0.275-0.244-0.414-0.366c-6.214,0-12.427,0-18.641,0c-0.794,0.293-1.14,0.868-1.138,1.709
					c0.01,3.748,0.004,7.496,0.004,11.243c0,0.556-0.003,0.589-0.55,0.551c-1.497-0.102-2.516,0.986-2.497,2.492
					c0.044,3.476,0.013,6.953,0.014,10.429c0.001,1.58,0.867,2.443,2.45,2.449c0.582,0.002,0.582,0.002,0.582,0.6
					c0,2.219-0.001,4.438,0.001,6.657c0.001,1.192,0.58,1.771,1.768,1.771c8.013,0.001,16.027,0.001,24.04,0
					c1.168,0,1.755-0.583,1.757-1.745c0.002-2.256,0-4.512,0.001-6.768c0-0.512,0.002-0.511,0.52-0.515
					c0.271-0.002,0.541,0.008,0.809-0.058c0.997-0.246,1.69-1.044,1.694-2.069C224.034,438.696,224.036,434.997,224.019,431.299z
					 M195.568,417.162c5.337,0,10.674,0,16.01,0c0.548,0,0.554,0.007,0.554,0.561c0.001,2.243-0.001,4.486,0.001,6.73
					c0.001,0.811,0.249,1.059,1.06,1.059c1.91,0.001,3.821,0,5.731,0.001c0.458,0,0.479,0.021,0.481,0.483
					c0.003,0.887,0.002,1.775,0,2.662c-0.001,0.477-0.024,0.498-0.504,0.499c-3.895,0.001-7.79,0-11.684,0
					c-3.882,0-7.765,0-11.647,0c-0.55,0-0.552-0.001-0.552-0.561c-0.001-3.624-0.001-7.247,0-10.871
					C195.018,417.166,195.022,417.162,195.568,417.162z M218.854,451.579c-3.883,0.001-7.766,0-11.65,0c-3.871,0-7.742,0-11.613,0
					c-0.572,0-0.574-0.002-0.574-0.579c-0.001-1.997-0.001-3.994,0.001-5.991c0-0.464,0.023-0.486,0.478-0.487
					c7.803-0.001,15.607-0.001,23.41,0c0.478,0,0.499,0.02,0.499,0.503c0.002,1.997,0.001,3.994,0,5.991
					C219.406,451.574,219.401,451.579,218.854,451.579z"/>
			</g>
			<g>
				<path style="fill:#FFFFFF;" d="M205.111,432.771h1.699l2.967,7.897h-1.644l-0.651-1.886h-3.044l-0.651,1.886h-1.643
					L205.111,432.771z M206.997,437.415l-0.706-1.974l-0.287-0.96h-0.088l-0.287,0.96l-0.706,1.974H206.997z"/>
				<path style="fill:#FFFFFF;" d="M211.331,434.536c-0.125,0-0.245-0.024-0.359-0.072c-0.114-0.048-0.213-0.114-0.298-0.199
					c-0.084-0.084-0.151-0.182-0.198-0.292c-0.048-0.11-0.072-0.232-0.072-0.364s0.024-0.254,0.072-0.364
					c0.048-0.11,0.114-0.208,0.198-0.292c0.084-0.084,0.184-0.151,0.298-0.198c0.114-0.048,0.233-0.072,0.359-0.072
					c0.257,0,0.478,0.09,0.662,0.27c0.184,0.181,0.276,0.399,0.276,0.656s-0.092,0.476-0.276,0.656
					C211.809,434.446,211.589,434.536,211.331,434.536z M210.615,440.669v-5.404h1.445v5.404H210.615z"/>
			</g>
			<g>
				<path style="fill:#FFFFFF;" d="M261.044,431.299c-0.006-1.224-0.959-2.121-2.189-2.14c-0.924-0.014-0.832,0.12-0.834-0.867
					c-0.003-1.097-0.007-2.194,0.003-3.292c0.003-0.379-0.112-0.691-0.362-0.976c-2.342-2.668-4.678-5.342-7.019-8.011
					c-0.12-0.137-0.275-0.244-0.414-0.366c-6.214,0-12.427,0-18.641,0c-0.794,0.293-1.14,0.868-1.138,1.709
					c0.01,3.748,0.004,7.496,0.004,11.243c0,0.556-0.003,0.589-0.55,0.551c-1.497-0.102-2.516,0.986-2.497,2.492
					c0.044,3.476,0.013,6.953,0.014,10.429c0.001,1.58,0.867,2.443,2.45,2.449c0.582,0.002,0.582,0.002,0.582,0.6
					c0,2.219-0.001,4.438,0.001,6.657c0.001,1.192,0.58,1.771,1.768,1.771c8.013,0.001,16.027,0.001,24.04,0
					c1.168,0,1.755-0.583,1.757-1.745c0.002-2.256,0-4.512,0.001-6.768c0-0.512,0.002-0.511,0.52-0.515
					c0.271-0.002,0.541,0.008,0.809-0.058c0.996-0.246,1.69-1.044,1.694-2.069C261.059,438.696,261.061,434.997,261.044,431.299z
					 M232.593,417.162c5.337,0,10.674,0,16.01,0c0.548,0,0.554,0.007,0.554,0.561c0.001,2.243-0.001,4.486,0.001,6.73
					c0.001,0.811,0.249,1.059,1.06,1.059c1.91,0.001,3.821,0,5.731,0.001c0.458,0,0.479,0.021,0.481,0.483
					c0.003,0.887,0.002,1.775,0,2.662c-0.001,0.477-0.024,0.498-0.504,0.499c-3.895,0.001-7.79,0-11.684,0
					c-3.882,0-7.765,0-11.647,0c-0.55,0-0.552-0.001-0.552-0.561c-0.001-3.624-0.001-7.247,0-10.871
					C232.042,417.166,232.047,417.162,232.593,417.162z M255.878,451.579c-3.883,0.001-7.766,0-11.65,0c-3.871,0-7.742,0-11.613,0
					c-0.572,0-0.574-0.002-0.574-0.579c-0.001-1.997-0.001-3.994,0.001-5.991c0-0.464,0.023-0.486,0.478-0.487
					c7.803-0.001,15.607-0.001,23.41,0c0.478,0,0.499,0.02,0.499,0.503c0.002,1.997,0.001,3.994,0,5.991
					C256.431,451.574,256.426,451.579,255.878,451.579z"/>
			</g>
			<g>
				<path style="fill:#FFFFFF;" d="M236.361,440.845c-0.338,0-0.662-0.048-0.971-0.143c-0.309-0.095-0.592-0.239-0.849-0.43
					c-0.257-0.191-0.481-0.425-0.673-0.7c-0.191-0.276-0.342-0.597-0.452-0.965l1.401-0.551c0.103,0.397,0.283,0.726,0.54,0.987
					c0.257,0.261,0.596,0.392,1.015,0.392c0.154,0,0.303-0.02,0.447-0.061c0.143-0.04,0.272-0.099,0.386-0.176
					s0.204-0.175,0.27-0.292c0.066-0.118,0.099-0.254,0.099-0.408c0-0.147-0.026-0.279-0.077-0.397
					c-0.051-0.117-0.138-0.227-0.259-0.331c-0.121-0.103-0.28-0.202-0.475-0.298c-0.195-0.095-0.435-0.195-0.722-0.298l-0.485-0.176
					c-0.213-0.073-0.429-0.173-0.645-0.298c-0.217-0.125-0.413-0.276-0.59-0.452c-0.177-0.176-0.322-0.384-0.436-0.623
					c-0.114-0.239-0.171-0.509-0.171-0.81c0-0.309,0.06-0.597,0.182-0.866c0.121-0.268,0.294-0.503,0.518-0.706
					c0.224-0.202,0.492-0.36,0.805-0.474s0.66-0.171,1.042-0.171c0.397,0,0.74,0.053,1.031,0.16
					c0.291,0.107,0.537,0.243,0.739,0.408c0.202,0.165,0.366,0.348,0.491,0.546c0.125,0.199,0.217,0.386,0.276,0.563l-1.312,0.551
					c-0.074-0.221-0.208-0.419-0.402-0.596c-0.195-0.176-0.462-0.265-0.8-0.265c-0.324,0-0.592,0.075-0.805,0.226
					c-0.213,0.151-0.32,0.348-0.32,0.59c0,0.235,0.103,0.436,0.309,0.601c0.206,0.165,0.533,0.325,0.982,0.48l0.497,0.165
					c0.316,0.111,0.605,0.237,0.866,0.381c0.261,0.143,0.485,0.314,0.673,0.513c0.187,0.199,0.331,0.425,0.43,0.678
					c0.1,0.254,0.149,0.546,0.149,0.877c0,0.412-0.083,0.767-0.248,1.064c-0.165,0.298-0.377,0.542-0.634,0.734
					c-0.258,0.191-0.548,0.335-0.872,0.43C236.986,440.797,236.67,440.845,236.361,440.845z"/>
				<path style="fill:#FFFFFF;" d="M239.516,432.771h1.61l1.633,4.754l0.287,1.015h0.088l0.309-1.015l1.699-4.754h1.61l-2.879,7.897
					h-1.566L239.516,432.771z"/>
				<path style="fill:#FFFFFF;" d="M251.097,436.334h3.871c0.022,0.089,0.04,0.195,0.055,0.32c0.015,0.125,0.023,0.25,0.023,0.375
					c0,0.507-0.078,0.985-0.232,1.434c-0.154,0.449-0.397,0.849-0.728,1.202c-0.353,0.375-0.775,0.666-1.268,0.871
					c-0.493,0.206-1.055,0.309-1.688,0.309c-0.574,0-1.114-0.103-1.621-0.309c-0.507-0.206-0.949-0.492-1.324-0.86
					c-0.375-0.367-0.673-0.803-0.894-1.307c-0.22-0.504-0.331-1.053-0.331-1.649c0-0.595,0.11-1.145,0.331-1.649
					c0.221-0.504,0.518-0.939,0.894-1.307c0.375-0.367,0.816-0.654,1.324-0.86c0.507-0.206,1.047-0.309,1.621-0.309
					c0.64,0,1.211,0.11,1.715,0.331c0.504,0.221,0.936,0.526,1.296,0.915l-1.026,1.004c-0.257-0.272-0.544-0.48-0.861-0.623
					c-0.316-0.143-0.694-0.215-1.136-0.215c-0.36,0-0.702,0.065-1.026,0.193c-0.323,0.129-0.607,0.311-0.849,0.546
					c-0.243,0.235-0.436,0.52-0.579,0.855c-0.143,0.335-0.215,0.708-0.215,1.119c0,0.412,0.072,0.785,0.215,1.12
					c0.143,0.335,0.338,0.62,0.585,0.855c0.246,0.235,0.531,0.418,0.854,0.546c0.324,0.129,0.669,0.193,1.037,0.193
					c0.419,0,0.774-0.061,1.064-0.182c0.29-0.121,0.539-0.278,0.745-0.469c0.147-0.132,0.274-0.3,0.38-0.502
					c0.107-0.202,0.189-0.428,0.248-0.678h-2.482V436.334z"/>
			</g>
			<g>
				<path style="fill:#FFFFFF;" d="M297.3,431.299c-0.006-1.224-0.959-2.121-2.189-2.14c-0.924-0.014-0.832,0.12-0.834-0.867
					c-0.003-1.097-0.007-2.194,0.003-3.292c0.003-0.379-0.112-0.691-0.362-0.976c-2.342-2.668-4.678-5.342-7.019-8.011
					c-0.12-0.137-0.275-0.244-0.414-0.366c-6.214,0-12.427,0-18.641,0c-0.794,0.293-1.14,0.868-1.138,1.709
					c0.01,3.748,0.004,7.496,0.004,11.243c0,0.556-0.003,0.589-0.55,0.551c-1.497-0.102-2.516,0.986-2.497,2.492
					c0.044,3.476,0.013,6.953,0.014,10.429c0.001,1.58,0.867,2.443,2.45,2.449c0.582,0.002,0.582,0.002,0.582,0.6
					c0,2.219-0.001,4.438,0.001,6.657c0.001,1.192,0.58,1.771,1.768,1.771c8.013,0.001,16.027,0.001,24.04,0
					c1.168,0,1.755-0.583,1.757-1.745c0.002-2.256,0-4.512,0.001-6.768c0-0.512,0.002-0.511,0.52-0.515
					c0.271-0.002,0.541,0.008,0.809-0.058c0.996-0.246,1.69-1.044,1.694-2.069C297.315,438.696,297.318,434.997,297.3,431.299z
					 M268.85,417.162c5.337,0,10.674,0,16.01,0c0.548,0,0.554,0.007,0.554,0.561c0.001,2.243-0.001,4.486,0.001,6.73
					c0.001,0.811,0.249,1.059,1.06,1.059c1.91,0.001,3.821,0,5.731,0.001c0.458,0,0.479,0.021,0.481,0.483
					c0.003,0.887,0.002,1.775,0,2.662c-0.001,0.477-0.024,0.498-0.504,0.499c-3.895,0.001-7.79,0-11.684,0
					c-3.882,0-7.765,0-11.647,0c-0.55,0-0.552-0.001-0.552-0.561c-0.001-3.624-0.001-7.247,0-10.871
					C268.299,417.166,268.303,417.162,268.85,417.162z M292.135,451.579c-3.883,0.001-7.766,0-11.65,0c-3.871,0-7.742,0-11.613,0
					c-0.572,0-0.574-0.002-0.574-0.579c-0.001-1.997-0.001-3.994,0.001-5.991c0-0.464,0.023-0.486,0.478-0.487
					c7.803-0.001,15.607-0.001,23.41,0c0.478,0,0.499,0.02,0.499,0.503c0.001,1.997,0.001,3.994,0,5.991
					C292.687,451.574,292.682,451.579,292.135,451.579z"/>
			</g>
			<g>
				<path style="fill:#FFFFFF;" d="M272.966,434.183v1.831h3.165v1.412h-3.165v1.831h3.518v1.412h-5.007v-7.897h5.007v1.412H272.966
					z"/>
				<path style="fill:#FFFFFF;" d="M277.852,440.669v-7.897h2.779c0.375,0,0.726,0.061,1.053,0.182
					c0.327,0.121,0.612,0.292,0.855,0.513c0.243,0.221,0.434,0.483,0.574,0.789c0.14,0.305,0.209,0.642,0.209,1.009
					c0,0.375-0.07,0.715-0.209,1.02c-0.14,0.305-0.331,0.568-0.574,0.789c-0.243,0.221-0.528,0.392-0.855,0.513
					c-0.327,0.121-0.678,0.182-1.053,0.182h-1.29v2.901H277.852z M280.653,436.356c0.389,0,0.684-0.111,0.882-0.331
					c0.199-0.22,0.298-0.474,0.298-0.761c0-0.14-0.024-0.276-0.072-0.408c-0.048-0.132-0.121-0.248-0.221-0.347
					c-0.099-0.099-0.222-0.178-0.37-0.237c-0.147-0.059-0.32-0.089-0.518-0.089h-1.312v2.173H280.653z"/>
				<path style="fill:#FFFFFF;" d="M286.797,440.845c-0.338,0-0.662-0.048-0.971-0.143c-0.309-0.095-0.592-0.239-0.849-0.43
					c-0.257-0.191-0.482-0.425-0.673-0.7c-0.191-0.276-0.342-0.597-0.452-0.965l1.401-0.551c0.103,0.397,0.283,0.726,0.541,0.987
					c0.257,0.261,0.595,0.392,1.015,0.392c0.154,0,0.303-0.02,0.447-0.061c0.143-0.04,0.272-0.099,0.386-0.176
					c0.114-0.077,0.204-0.175,0.27-0.292c0.066-0.118,0.1-0.254,0.1-0.408c0-0.147-0.026-0.279-0.077-0.397
					c-0.051-0.117-0.138-0.227-0.259-0.331c-0.121-0.103-0.279-0.202-0.474-0.298c-0.195-0.095-0.436-0.195-0.723-0.298
					l-0.485-0.176c-0.213-0.073-0.428-0.173-0.645-0.298c-0.217-0.125-0.414-0.276-0.59-0.452c-0.176-0.176-0.322-0.384-0.436-0.623
					c-0.114-0.239-0.171-0.509-0.171-0.81c0-0.309,0.061-0.597,0.182-0.866c0.121-0.268,0.294-0.503,0.518-0.706
					c0.224-0.202,0.493-0.36,0.805-0.474c0.312-0.114,0.66-0.171,1.042-0.171c0.397,0,0.741,0.053,1.031,0.16
					c0.29,0.107,0.537,0.243,0.739,0.408c0.202,0.165,0.365,0.348,0.491,0.546c0.125,0.199,0.217,0.386,0.276,0.563l-1.312,0.551
					c-0.074-0.221-0.208-0.419-0.403-0.596c-0.195-0.176-0.462-0.265-0.799-0.265c-0.324,0-0.592,0.075-0.805,0.226
					c-0.213,0.151-0.32,0.348-0.32,0.59c0,0.235,0.103,0.436,0.309,0.601c0.206,0.165,0.533,0.325,0.982,0.48l0.496,0.165
					c0.316,0.111,0.605,0.237,0.866,0.381c0.261,0.143,0.485,0.314,0.673,0.513c0.187,0.199,0.331,0.425,0.43,0.678
					c0.099,0.254,0.149,0.546,0.149,0.877c0,0.412-0.083,0.767-0.248,1.064c-0.165,0.298-0.377,0.542-0.634,0.734
					c-0.258,0.191-0.548,0.335-0.872,0.43C287.422,440.797,287.105,440.845,286.797,440.845z"/>
			</g>
			<g>
				<path style="fill:#FFFFFF;" d="M321.394,439.168l4.004-4.985h-3.827v-1.412h5.559v1.5l-3.96,4.985h4.004v1.412h-5.779V439.168z"
					/>
				<path style="fill:#FFFFFF;" d="M328.409,432.771h1.489v7.897h-1.489V432.771z"/>
				<path style="fill:#FFFFFF;" d="M331.486,440.669v-7.897h2.779c0.375,0,0.726,0.061,1.053,0.182
					c0.327,0.121,0.612,0.292,0.855,0.513s0.434,0.483,0.574,0.789c0.14,0.305,0.209,0.642,0.209,1.009
					c0,0.375-0.07,0.715-0.209,1.02c-0.14,0.305-0.331,0.568-0.574,0.789c-0.243,0.221-0.528,0.392-0.855,0.513
					c-0.327,0.121-0.678,0.182-1.053,0.182h-1.29v2.901H331.486z M334.288,436.356c0.389,0,0.684-0.111,0.882-0.331
					c0.199-0.22,0.298-0.474,0.298-0.761c0-0.14-0.024-0.276-0.072-0.408c-0.048-0.132-0.121-0.248-0.221-0.347
					c-0.099-0.099-0.222-0.178-0.37-0.237c-0.147-0.059-0.32-0.089-0.518-0.089h-1.312v2.173H334.288z"/>
			</g>
		</g>
		<g style="opacity:0.61;">
			<path style="fill:#FFFFFF;" d="M300.133,433.27h9.067v2.242h-9.067V433.27z M300.133,437.136h9.067v2.243h-9.067V437.136z"/>
		</g>
	</g>
	<g style="opacity:0.61;">
		<path style="fill:#FFFFFF;" d="M156.756,478.878h1.607c1.263,0,2.114,0.812,2.114,1.974c0,1.161-0.851,1.973-2.114,1.973h-1.607
			V478.878z M158.34,482.464c1.049,0,1.725-0.665,1.725-1.612c0-0.947-0.677-1.613-1.725-1.613h-1.167v3.225H158.34z"/>
		<path style="fill:#FFFFFF;" d="M165.139,480.851c0-1.15,0.879-2.007,2.075-2.007c1.184,0,2.069,0.851,2.069,2.007
			c0,1.156-0.885,2.007-2.069,2.007C166.019,482.858,165.139,482.002,165.139,480.851z M168.866,480.851
			c0-0.942-0.705-1.635-1.652-1.635c-0.953,0-1.663,0.693-1.663,1.635c0,0.941,0.71,1.635,1.663,1.635
			C168.162,482.486,168.866,481.793,168.866,480.851z"/>
		<path style="fill:#FFFFFF;" d="M179.596,478.878l-1.331,3.947h-0.44l-1.156-3.366l-1.161,3.366h-0.434l-1.331-3.947h0.429
			l1.139,3.394l1.178-3.394h0.389l1.161,3.411l1.156-3.411H179.596z"/>
		<path style="fill:#FFFFFF;" d="M187.731,478.878v3.947h-0.344l-2.537-3.202v3.202h-0.417v-3.947h0.344l2.543,3.203v-3.203H187.731
			z"/>
		<path style="fill:#FFFFFF;" d="M193.093,478.878h0.417v3.586h2.21v0.361h-2.627V478.878z"/>
		<path style="fill:#FFFFFF;" d="M200.061,480.851c0-1.15,0.879-2.007,2.075-2.007c1.184,0,2.069,0.851,2.069,2.007
			c0,1.156-0.885,2.007-2.069,2.007C200.941,482.858,200.061,482.002,200.061,480.851z M203.788,480.851
			c0-0.942-0.705-1.635-1.652-1.635c-0.953,0-1.663,0.693-1.663,1.635c0,0.941,0.71,1.635,1.663,1.635
			C203.083,482.486,203.788,481.793,203.788,480.851z"/>
		<path style="fill:#FFFFFF;" d="M211.636,481.77h-2.199l-0.474,1.054h-0.434l1.804-3.947h0.412l1.804,3.947h-0.44L211.636,481.77z
			 M211.484,481.432l-0.947-2.12l-0.947,2.12H211.484z"/>
		<path style="fill:#FFFFFF;" d="M217.28,478.878h1.607c1.263,0,2.114,0.812,2.114,1.974c0,1.161-0.851,1.973-2.114,1.973h-1.607
			V478.878z M218.864,482.464c1.049,0,1.725-0.665,1.725-1.612c0-0.947-0.677-1.613-1.725-1.613h-1.167v3.225H218.864z"/>
		<path style="fill:#FFFFFF;" d="M234.041,481.77h-2.199l-0.474,1.054h-0.434l1.804-3.947h0.412l1.804,3.947h-0.44L234.041,481.77z
			 M233.889,481.432l-0.947-2.12l-0.947,2.12H233.889z"/>
		<path style="fill:#FFFFFF;" d="M239.685,478.878h0.417v3.586h2.21v0.361h-2.627V478.878z"/>
		<path style="fill:#FFFFFF;" d="M247.082,478.878h0.417v3.586h2.21v0.361h-2.627V478.878z"/>
		<path style="fill:#FFFFFF;" d="M260.449,479.239v1.551h2.041v0.361h-2.041v1.675h-0.417v-3.947h2.706v0.361H260.449z"/>
		<path style="fill:#FFFFFF;" d="M267.678,478.878h0.417v3.947h-0.417V478.878z"/>
		<path style="fill:#FFFFFF;" d="M273.456,478.878h0.417v3.586h2.21v0.361h-2.627V478.878z"/>
		<path style="fill:#FFFFFF;" d="M283.644,482.464v0.361h-2.791v-3.947h2.706v0.361h-2.289v1.404h2.041v0.355h-2.041v1.466H283.644z
			"/>
		<path style="fill:#FFFFFF;" d="M294.672,479.239v1.551h2.041v0.361h-2.041v1.675h-0.417v-3.947h2.706v0.361H294.672z"/>
		<path style="fill:#FFFFFF;" d="M301.5,480.851c0-1.15,0.879-2.007,2.075-2.007c1.184,0,2.069,0.851,2.069,2.007
			c0,1.156-0.885,2.007-2.069,2.007C302.379,482.858,301.5,482.002,301.5,480.851z M305.226,480.851
			c0-0.942-0.705-1.635-1.652-1.635c-0.953,0-1.663,0.693-1.663,1.635c0,0.941,0.71,1.635,1.663,1.635
			C304.522,482.486,305.226,481.793,305.226,480.851z"/>
		<path style="fill:#FFFFFF;" d="M313.351,482.825l-0.902-1.269c-0.102,0.011-0.203,0.017-0.316,0.017h-1.06v1.252h-0.417v-3.947
			h1.477c1.004,0,1.613,0.507,1.613,1.353c0,0.62-0.327,1.054-0.902,1.24l0.964,1.353H313.351z M313.328,480.231
			c0-0.632-0.417-0.992-1.207-0.992h-1.048v1.979h1.048C312.911,481.218,313.328,480.851,313.328,480.231z"/>
		<path style="fill:#FFFFFF;" d="M322.907,478.878v3.947h-0.4v-3.158l-1.551,2.656h-0.197l-1.551-2.639v3.14h-0.4v-3.947h0.344
			l1.714,2.926l1.697-2.926H322.907z"/>
		<path style="fill:#FFFFFF;" d="M330.744,481.77h-2.199l-0.473,1.054h-0.434l1.804-3.947h0.411l1.804,3.947h-0.44L330.744,481.77z
			 M330.592,481.432l-0.947-2.12l-0.947,2.12H330.592z"/>
		<path style="fill:#FFFFFF;" d="M336.957,479.239h-1.387v-0.361h3.192v0.361h-1.387v3.586h-0.417V479.239z"/>
		<path style="fill:#FFFFFF;" d="M343.063,482.346l0.164-0.321c0.282,0.276,0.784,0.479,1.302,0.479c0.739,0,1.06-0.31,1.06-0.699
			c0-1.083-2.43-0.417-2.43-1.877c0-0.581,0.451-1.083,1.455-1.083c0.446,0,0.908,0.13,1.224,0.35l-0.141,0.333
			c-0.338-0.22-0.733-0.327-1.083-0.327c-0.722,0-1.043,0.321-1.043,0.716c0,1.083,2.43,0.429,2.43,1.866
			c0,0.581-0.462,1.077-1.472,1.077C343.937,482.858,343.356,482.65,343.063,482.346z"/>
	</g>
</g>
<g>
</g>
<g>
	<path style="fill-rule:evenodd;clip-rule:evenodd;fill:#FFFFFF;" d="M250,31c120.93,0,219,98.07,219,219s-98.07,219-219,219
		S31,370.93,31,250S129.07,31,250,31L250,31z"/>
	<path style="fill-rule:evenodd;clip-rule:evenodd;fill:#0B0D0F;" d="M224.85,337.162c-1.482,0.711-3.002,1.83-3.585,3.287
		c-1.038,2.591,1.003,3.608,2.636,5.06c0.308,0.64,0.701,1.208,1.093,1.771c7.853,11.27,5.022,23.789-0.872,31.481
		c-3.332,4.349-7.524,6.907-12.741,8.018c-7.976,1.699-1.044-2.91,0.377-12.152c0-1.422,0-2.751,0-4.079
		c-0.854-2.276-1.423-4.742-1.707-7.208c-1.992-3.13-2.846-5.406-3.7-6.734c-1.518-0.948-2.941-1.897-4.364-2.75
		c-2.466,1.423-2.182,2.276-2.371,5.501c-1.234,3.225-2.941,6.355-5.408,8.821c-3.036,1.992-4.743,1.992-8.253,1.707
		c-0.285-0.474-0.569-0.949-0.854-1.423c0.19-0.569,0.379-1.043,0.569-1.518c2.941-4.173,4.079-8.157-0.095-12.33
		c-0.355,0.55-1.674,2.898-3.994,4.226c-4.331,2.479-6.846,2.295-12.036,2.811c-3.847,0.383-6.412,1.265-3.228-3.907
		c5.028-3.32,4.364-6.829,3.225-12.425c-1.366-1.884-3.503-3.915-6.388-5.839c-15.372-10.253-33.38-22.075-42.734-44.307
		c-2.551-6.065-4.292-12.628-4.383-15.868c-1.412-0.768-3.575-0.431-4.514-1.445c-3.767-4.064,2.428-6.08,3.64-8.93
		c0.341-0.801,0.382-1.681,0.293-2.53c-0.261-2.495-1.685-4.224-3.755-5.442c-0.963-0.567-1.917-1.093-2.386-1.892
		c-0.74-1.261-0.276-3.011,0.894-4.266c1.113-1.193,2.363-1.982,3.589-2.198c1.584-0.279,1.59-3.059,2.048-4.618l1.947-5.265
		c1.099-2.27,2.399-4.654,3.936-6.19c1.974-3.841,4.828-8.278,8.501-11.704c13.896-12.96,25.87-17.551,3.168,0.133
		c-2.467,3.604-5.313,6.924-7.495,10.813c-4.743,3.794-6.261,10.528-7.684,16.219c0.949,3.984,3.89,4.079,7.305,5.406
		c2.656,0.379,5.313,0.759,8.064,1.138c10.151,0.379,20.301-0.854,30.357-2.466c1.328-0.664,2.656-1.233,4.079-1.802
		c0.664-0.949,1.328-1.802,2.087-2.656c0.261-4.369-0.375-7.527-1.846-10.77c-1.582-3.488-9.03-16.678-11.878-15.511
		c-0.807,0.332-1.338,0.654-1.55,1.716c0.38,4.932,0.664,12.804-2.371,17.072c-0.569,0-1.044,0.095-1.518,0.19
		c-1.043-3.13,0.854-7.398,1.044-10.718c-0.095-2.371-0.19-4.648-0.19-6.924c-1.161-7.793-3.091-9.897-5.734-12.642
		c0.366-0.134,0.857,0.022,1.356,0.273c2.051,1.03,3.505,2.156,4.663,4.213c0.563,0.385,1.359,0.882,2.163,1.47
		c3.083,2.255,6.148,5.64,8.828,8.36c5.045,5.12,9.052,15.049,11.777,19.478c1.138,1.138,2.277,2.371,3.415,3.604
		c2.371,4.268-1.043,6.07-1.043,10.528c0.379,0.474,0.759,0.949,1.233,1.518c2.001,0.889,5.798,3.399,5.055,5.405
		c-0.631,1.708-2.43,1.437-3.836,1.554c-1.083,0.091-2.253,0.222-2.733,0.169c0.616-0.517,1.086-1.319,1.361-2.127
		c0.61-1.788,0.245-2.067-1.264-2.888c-2.424-1.322-4.863-1.91-7.691-2.302c-0.664-0.379-1.233-0.759-1.802-1.043
		c-2.751,0-4.648,1.328-7.115,2.087c-1.518,0-3.605-0.379-4.743,0.759c-1.803-1.328-3.226-0.474-4.554,0.854
		c-2.561-0.379-5.312-1.707-7.874-0.759c-3.7-0.379-7.874,1.138-11.384,1.992c-1.992,1.138-4.554,1.517-6.736,1.707
		c-1.613,0.664-3.226,1.328-4.838,2.087c-2.751,0.379-6.641,2.656-3.605,5.691c4.174-1.043,8.253-3.509,12.333-5.122
		c3.51-0.853,7.02-1.802,10.435-3.035c1.992,0,4.079,0,6.166,0c6.617,0.333,18.969-1.827,23.906-0.569
		c-1.233,2.277-17.455,2.182-17.93,3.699c0.19,5.881,1.043,11.192,2.087,17.073c2.562,6.07,2.372,13.468,7.684,18.116
		c5.403,6.944,10.288,17.681,18.879,21.246c2.087,2.086,5.028,3.604,7.969,4.173c3.7,2.087,3.7,2.087,4.269,2.75
		c0.569-0.19,1.138-0.379,1.802-0.569c3.605,0.569,5.787,0.664,6.261-3.225c-0.19-2.561-0.19-2.561-0.569-3.414
		c-12.238-7.277-19.27-11.871-25.614-30.541c-0.664-4.078-1.328-8.157-1.992-12.235c-0.19-4.268-0.285-8.442-0.379-12.615
		c-0.664-1.992-0.949-2.276-2.846-3.035c-0.095-0.474-0.095-0.474,0.379-1.423c3.131,0.379,3.131,0.379,6.546,1.233
		c0.285,0.474,0.569,0.949,0.854,1.423c-0.569,1.517-1.043,3.035-1.518,4.647c0,3.32,0,6.64,0,10.054
		c0.854,4.647,1.708,9.39,2.656,14.132c2.751,4.648,6.546,8.536,11.194,11.192c1.328,0,2.656,0.095,4.079,0.19
		c1.992-0.949,3.036-3.889,5.597-2.94c1.803,2.371-0.664,6.829,1.328,8.821c1.518-0.19,2.467-0.569,3.795-1.422
		c0.854-1.802,1.707-3.509,2.561-5.217c4.554,1.613,3.51,6.924,4.459,10.813c0.474,0.379,0.949,0.759,1.518,1.138
		c-0.095,0.474-0.19,0.948-0.285,1.517c-1.897,1.233-4.079,2.087-4.554,4.458c0.569,1.518,1.138,3.699,2.561,4.648
		c-3.131,2.276-3.605,7.683-2.941,11.192c0.854,0.379,2.277,0.948,2.656,1.802c0.949,0.285,1.897,0.569,2.846,0.854
		c3.131,2.845,4.459,4.268,5.882,8.157c1.423,1.897,2.277,5.311,2.941,7.588c-0.474,0.095-0.854,0.19-1.234,0.285
		c-0.285-1.138-0.569-2.466-1.328-3.225c-0.285-1.328-0.569-2.561-0.854-3.794c-1.898-0.949-3.036-3.225-4.079-5.027
		c-2.467-1.897-2.467-1.897-3.51-3.13c-1.708-0.664-3.605-0.759-5.408-0.854c-2.371,1.138-2.087,0.854-2.087,3.699
		c1.138,0.759,2.277,1.518,3.415,2.276c2.087,2.087,4.174,4.173,6.356,6.355c1.328,3.889,3.226,7.588,3.795,11.666
		c-0.19,1.992-0.379,4.079-0.569,6.165c-0.474,1.707-1.518,3.794,0.19,4.932c6.356-1.043,7.969-9.2,9.487-14.322
		c1.303-10.798-0.056-15.464-6.736-23.143c-1.518-1.328-2.562-1.802-2.846-3.794c9.821-3.422,22.123-25.829,6.261-37.18
		c-5.597-1.802-2.656,6.924-2.372,9.485c-0.285,1.043-0.474,2.087-0.664,3.13c-0.759,1.138-1.423,2.277-2.087,3.509
		c-1.044,0.474-2.277,1.328-3.036,2.182c-0.095-0.379-0.19-0.759-0.19-1.138c1.992-0.949,2.941-4.932,3.32-7.114
		c0.474-6.355-2.087-11.571-8.159-13.373c-0.285-0.379-0.569-0.759-0.854-1.138c3.042-2.241,6.954-1.51,10.639-0.003
		c5.057,2.067,8.605,4.207,11.785,8.663c3.832,5.366,4.073,9.733,3.06,14.352C232.286,329.559,228.569,332.268,224.85,337.162
		L224.85,337.162z M135.312,240.689c0.913,0,1.654,0.741,1.654,1.654c0,0.913-0.741,1.654-1.654,1.654
		c-0.913,0-1.654-0.741-1.654-1.654C133.658,241.43,134.399,240.689,135.312,240.689L135.312,240.689z M149.18,292.336
		c0.106,0.642-0.146,1.222-0.561,1.293c-0.416,0.072-0.839-0.39-0.946-1.034c-0.107-0.641,0.144-1.221,0.559-1.291
		C148.649,291.231,149.073,291.694,149.18,292.336L149.18,292.336z M149.859,285.068c0.213,1.284-0.29,2.444-1.122,2.586
		c-0.832,0.144-1.678-0.782-1.89-2.068c-0.214-1.282,0.289-2.441,1.119-2.582C148.797,282.86,149.646,283.785,149.859,285.068
		L149.859,285.068z M172.003,339.367c0.773,0.401,1.188,1.141,0.924,1.651c-0.263,0.51-1.106,0.599-1.881,0.198
		c-0.774-0.399-1.188-1.139-0.924-1.648C170.386,339.056,171.228,338.966,172.003,339.367L172.003,339.367z M177.162,329.4
		c0.773,0.401,1.188,1.141,0.924,1.651c-0.263,0.51-1.106,0.599-1.881,0.198c-0.774-0.399-1.188-1.139-0.924-1.648
		C175.545,329.089,176.388,328.999,177.162,329.4L177.162,329.4z M163.662,331.876c1.158,0.601,1.777,1.706,1.382,2.469
		c-0.394,0.763-1.655,0.895-2.813,0.296c-1.157-0.598-1.775-1.703-1.381-2.466C161.245,331.412,162.505,331.278,163.662,331.876
		L163.662,331.876z M170.173,324.893c0.537,0,0.973,0.436,0.973,0.973c0,0.537-0.436,0.973-0.973,0.973
		c-0.537,0-0.973-0.436-0.973-0.973C169.2,325.329,169.636,324.893,170.173,324.893L170.173,324.893z M202.635,321.07
		c0.822-0.766,1.774-1.323,3.012-1.422c0.424,1.087,0.578,2.175,0.335,3.262C204.866,322.882,203.751,322.436,202.635,321.07
		L202.635,321.07z M192.595,366.47c-2.372-3.13,0.379-7.303,1.897-10.434c0-2.561-1.328-4.268-0.285-6.734
		c0.474-0.285,1.043-0.569,1.613-0.759c1.233,1.043,1.707,3.889,2.087,5.407C197.907,358.123,196.864,364.667,192.595,366.47
		L192.595,366.47z M175.424,358.692c-1.992-0.664-1.992-0.949-1.992-2.941c1.138-3.414,1.233-6.924,2.087-10.338
		c4.364,0.664,0.285,6.545,3.605,6.545c1.043-1.043,0.569-3.225,1.328-4.742c2.562,1.233,2.087,5.311,1.044,7.493
		C180.072,355.941,180.072,355.941,175.424,358.692L175.424,358.692z M198.856,347.216c-1.423-4.268,3.226-10.054,4.838-13.753
		c0.569-0.474,1.043-1.328,1.423-1.423c0,0.854,0.095,1.802,0.19,2.75C204.168,339.723,203.315,344.275,198.856,347.216
		L198.856,347.216z M187.567,344.37c-3.32-2.182,2.561-6.545,2.182-1.613C189.179,343.706,188.515,344.086,187.567,344.37
		L187.567,344.37z M177.321,339.248c-1.992-1.992-1.898-1.992-0.285-4.268C179.313,335.549,178.839,338.015,177.321,339.248
		L177.321,339.248z M183.392,338.869c-1.707-1.707-2.751-3.794-0.285-5.027c0.949,0.949,1.613,2.277,1.613,3.794
		C184.246,338.015,183.772,338.395,183.392,338.869L183.392,338.869z M192.595,338.205c-0.379-0.759-0.474-0.759-0.285-1.707
		c0.19-0.095,0.379-0.095,0.664-0.095c0,0.379,0.095,0.759,0.19,1.233C192.974,337.825,192.784,338.015,192.595,338.205
		L192.595,338.205z M171.06,335.549c-0.759-0.19-1.518-0.379-2.182-0.569c-0.854-1.707-1.043-3.13,0.569-4.268
		c2.277,0.664,2.846,1.613,2.372,3.984C171.534,334.98,171.25,335.265,171.06,335.549L171.06,335.549z M215.837,331.755
		c-0.19-0.19-0.285-0.285-0.38-0.379c0.285-1.043,0.285-1.043,1.328-2.561c3.51-2.277,4.554-7.114,8.064-9.2
		c0.19,0.095,0.379,0.285,0.664,0.474c0,3.794-4.839,9.011-7.874,11.287C216.975,331.471,216.406,331.566,215.837,331.755
		L215.837,331.755z M163.376,330.048c-1.803-1.328-3.51-3.32-1.898-5.596c2.182-0.19,4.079-1.138,4.554,2.181
		C165.462,329.005,165.462,329.764,163.376,330.048L163.376,330.048z M153.889,327.772c-0.285-0.285-0.569-0.569-0.759-0.759
		c0.19-1.802,0.474-3.604,2.467-1.612c0,0.474,0.095,0.949,0.19,1.517C155.312,327.392,155.312,327.392,153.889,327.772
		L153.889,327.772z M155.597,322.839c0-1.897-0.475-3.13,1.992-3.13c0.285,0.19,0.569,0.379,0.854,0.569
		c-0.095,0.569-0.095,1.138-0.095,1.802C157.873,322.46,157.873,322.46,155.597,322.839L155.597,322.839z M147.722,322.65
		c-2.087-1.233-4.364-4.363-1.707-6.26c3.7,0,4.079,1.802,3.795,5.027C149.43,322.176,148.576,322.365,147.722,322.65
		L147.722,322.65z M164.704,320.753c-0.474-0.095-0.949-0.19-1.328-0.19c0-0.19,0-0.379,0.095-0.474
		c0.474-0.095,0.949-0.19,1.423-0.285C164.798,320.089,164.704,320.373,164.704,320.753L164.704,320.753z M153.889,317.244
		c-0.569-0.19-1.138-0.379-1.613-0.569c-0.664-1.233-0.19-2.086,0.19-3.13c0.569-0.19,1.233-0.379,1.897-0.474
		C155.312,314.019,155.217,316.58,153.889,317.244L153.889,317.244z M192.595,317.054c-0.854-1.518-0.095-3.699,1.897-3.035
		c0,0.569,0,1.233,0,1.897C193.828,316.295,193.164,316.674,192.595,317.054L192.595,317.054z M160.15,315.726
		c-0.664-1.043-1.518-2.466-0.285-3.414c1.897,0.285,2.561,1.138,1.992,3.035C161.288,315.441,160.719,315.536,160.15,315.726
		L160.15,315.726z M141.651,315.157c-0.949-0.759-1.898-1.518-2.846-2.277c0-1.423-0.095-3.32,1.233-4.173
		c3.415,0,4.269,1.897,2.751,5.501C142.41,314.493,142.03,314.778,141.651,315.157L141.651,315.157z M147.722,312.311
		c-1.518-2.276-0.854-4.363,1.423-5.501c0.19,0.095,0.379,0.19,0.664,0.285c0.379,1.517,0.664,3.604-0.19,4.837
		C148.956,312.027,148.292,312.122,147.722,312.311L147.722,312.311z M155.597,310.225c-0.475-0.759-0.949-1.518-1.328-2.181
		c0.285-0.854,0.664-1.707,1.044-2.561c0.569,0.19,1.233,0.379,1.897,0.664C158.347,308.517,157.399,309.371,155.597,310.225
		L155.597,310.225z M135.39,308.517c-1.992-1.612-3.605-4.173-1.897-6.734l-0.001-0.062c-0.051,0.019-0.103,0.033-0.156,0.044
		c-0.92,0.184-1.856-0.999-2.092-2.647c-0.091-0.63-0.064-1.237,0.055-1.756c-0.03-0.075-0.058-0.15-0.083-0.226
		c0.854-1.802,0.854-2.371,3.036-1.992c0.949,1.802,1.897,3.509,0.379,5.027c0,0.569,0,1.138,0,1.802
		c3.131,0.569,4.554,1.423,3.415,4.932C137.192,307.759,136.433,308.138,135.39,308.517L135.39,308.517z M143.928,305.862
		c-2.182-0.664-1.802-3.984-0.474-5.311c0.379-0.19,0.759-0.285,1.234-0.379C146.679,302.163,147.248,305.198,143.928,305.862
		L143.928,305.862z M151.043,305.293c-0.759-1.802-1.328-3.414-0.095-5.122c0.759,0.095,1.518,0.19,2.277,0.285
		c0.854,1.328,0.664,2.94-0.285,4.268C152.276,304.913,151.612,305.103,151.043,305.293L151.043,305.293z M143.169,299.412
		c-2.846-0.569-5.882-4.743-1.992-6.165c0.664-0.095,1.423-0.095,2.182-0.095c0.854,1.707,1.328,2.371,1.328,4.363
		C143.548,298.558,143.548,298.558,143.169,299.412L143.169,299.412z M149.43,297.61c-0.379-0.853-0.19-1.138-0.095-2.181
		c0.474,0,0.949,0,1.423,0c0,0.569,0,1.138,0.095,1.802C150.379,297.325,149.904,297.42,149.43,297.61L149.43,297.61z
		 M127.136,293.436c-1.708-0.664-3.036-3.793-2.182-5.501c2.467,0.379,4.269,1.897,4.269,4.553
		C128.464,292.773,127.8,293.057,127.136,293.436L127.136,293.436z M135.579,292.299c-0.285-0.379-0.569-0.664-0.759-0.949
		c0.285-1.423,0.285-1.423,0.664-1.897c0.474,0,1.043,0.095,1.613,0.19c0,0.474,0.095,1.043,0.19,1.612
		C136.718,291.54,136.149,291.919,135.579,292.299L135.579,292.299z M142.979,291.729c-0.379-1.328-1.233-2.181,0.095-3.32
		c0.569,0.19,1.138,0.379,1.708,0.569C144.782,290.781,144.497,290.876,142.979,291.729L142.979,291.729z M130.646,287.746
		c-3.7-1.802-1.992-5.975,2.087-5.406c0.57,1.138,0.379,3.983-0.19,5.216C131.88,287.556,131.216,287.651,130.646,287.746
		L130.646,287.746z M140.133,285.849c-0.474-0.285-0.854-0.569-1.233-0.854c-1.707-5.122,4.648-8.916,4.648-1.328
		C142.315,285.185,141.936,285.375,140.133,285.849L140.133,285.849z M124.48,282.245c-2.182-1.518-1.802-1.802-1.613-4.363
		c1.423-1.423,2.751-2.182,4.743-0.949c0.379,1.707-0.095,3.699-1.138,5.027C125.808,282.055,125.144,282.15,124.48,282.245
		L124.48,282.245z M135.579,279.779c-3.984-2.371-3.415-6.639,0.949-7.683c2.846,0.949,1.613,4.268,0.949,6.45
		C136.813,278.925,136.149,279.304,135.579,279.779L135.579,279.779z M144.687,277.787c-0.949-1.992-2.846-3.889-1.328-6.165
		c3.984-1.328,3.89,2.466,3.605,5.406C146.584,277.408,146.584,277.408,144.687,277.787L144.687,277.787z M121.444,262.232
		c-1.613-1.233-3.32-1.802-4.174-3.604c1.613-1.613,5.882,0.474,7.02,2.181c1.233,0.19,2.467,0.379,3.7,0.569
		c0,0.095,0,0.285,0.095,0.474C125.808,261.947,123.626,262.042,121.444,262.232L121.444,262.232z M168.878,258.533
		c0.474-3.13,2.277-3.32,4.933-4.363c0.854,0,0.949,0.664,1.328,1.233c-0.759,1.517-1.803,2.466-3.51,2.94
		C170.68,258.343,169.731,258.438,168.878,258.533L168.878,258.533z M133.492,249.617c-4.554-1.233-6.83-5.596-4.364-9.959
		c3.795-1.897,9.392-2.94,11.574,1.518c0,2.371-0.664,5.311-2.372,7.019C136.718,248.669,135.105,249.143,133.492,249.617
		L133.492,249.617z"/>
	<path style="fill-rule:evenodd;clip-rule:evenodd;fill:#0B0D0F;" d="M275.15,337.162c1.482,0.711,3.002,1.83,3.585,3.287
		c1.038,2.591-1.003,3.608-2.636,5.06c-0.308,0.64-0.701,1.208-1.093,1.771c-7.853,11.27-5.022,23.789,0.872,31.481
		c3.332,4.349,7.524,6.907,12.741,8.018c7.975,1.699,1.044-2.91-0.377-12.152c0-1.422,0-2.751,0-4.079
		c0.854-2.276,1.423-4.742,1.707-7.208c1.992-3.13,2.846-5.406,3.7-6.734c1.518-0.948,2.941-1.897,4.364-2.75
		c2.466,1.423,2.182,2.276,2.371,5.501c1.234,3.225,2.941,6.355,5.408,8.821c3.036,1.992,4.743,1.992,8.253,1.707
		c0.285-0.474,0.569-0.949,0.854-1.423c-0.19-0.569-0.379-1.043-0.569-1.518c-2.941-4.173-4.079-8.157,0.095-12.33
		c0.355,0.55,1.674,2.898,3.994,4.226c4.331,2.479,6.846,2.295,12.036,2.811c3.847,0.383,6.412,1.265,3.228-3.907
		c-5.028-3.32-4.364-6.829-3.225-12.425c1.366-1.884,3.503-3.915,6.388-5.839c15.372-10.253,33.38-22.075,42.734-44.307
		c2.551-6.065,4.292-12.628,4.383-15.868c1.412-0.768,3.575-0.431,4.514-1.445c3.767-4.064-2.428-6.08-3.64-8.93
		c-0.341-0.801-0.382-1.681-0.293-2.53c0.261-2.495,1.685-4.224,3.755-5.442c0.963-0.567,1.917-1.093,2.386-1.892
		c0.74-1.261,0.276-3.011-0.894-4.266c-1.112-1.193-2.363-1.982-3.589-2.198c-1.584-0.279-1.59-3.059-2.048-4.618l-1.947-5.265
		c-1.099-2.27-2.399-4.654-3.936-6.19c-1.974-3.841-4.828-8.278-8.501-11.704c-13.896-12.96-25.87-17.551-3.168,0.133
		c2.467,3.604,5.313,6.924,7.495,10.813c4.743,3.794,6.261,10.528,7.684,16.219c-0.949,3.984-3.89,4.079-7.305,5.406
		c-2.656,0.379-5.313,0.759-8.064,1.138c-10.151,0.379-20.301-0.854-30.357-2.466c-1.328-0.664-2.656-1.233-4.079-1.802
		c-0.664-0.949-1.328-1.802-2.087-2.656c-0.261-4.369,0.375-7.527,1.846-10.77c1.582-3.488,9.03-16.678,11.878-15.511
		c0.807,0.332,1.338,0.654,1.55,1.716c-0.38,4.932-0.664,12.804,2.371,17.072c0.569,0,1.044,0.095,1.518,0.19
		c1.043-3.13-0.854-7.398-1.044-10.718c0.095-2.371,0.19-4.648,0.19-6.924c1.162-7.793,3.091-9.897,5.734-12.642
		c-0.366-0.134-0.857,0.022-1.356,0.273c-2.051,1.03-3.505,2.156-4.663,4.213c-0.563,0.385-1.359,0.882-2.163,1.47
		c-3.083,2.255-6.148,5.64-8.828,8.36c-5.045,5.12-9.052,15.049-11.777,19.478c-1.138,1.138-2.277,2.371-3.415,3.604
		c-2.371,4.268,1.043,6.07,1.043,10.528c-0.379,0.474-0.759,0.949-1.233,1.518c-2.001,0.889-5.798,3.399-5.055,5.405
		c0.631,1.708,2.43,1.437,3.836,1.554c1.083,0.091,2.253,0.222,2.733,0.169c-0.616-0.517-1.086-1.319-1.361-2.127
		c-0.61-1.788-0.245-2.067,1.264-2.888c2.424-1.322,4.863-1.91,7.691-2.302c0.664-0.379,1.233-0.759,1.802-1.043
		c2.751,0,4.648,1.328,7.115,2.087c1.518,0,3.605-0.379,4.743,0.759c1.803-1.328,3.225-0.474,4.554,0.854
		c2.561-0.379,5.312-1.707,7.874-0.759c3.7-0.379,7.874,1.138,11.384,1.992c1.992,1.138,4.553,1.517,6.736,1.707
		c1.613,0.664,3.226,1.328,4.838,2.087c2.751,0.379,6.641,2.656,3.605,5.691c-4.174-1.043-8.253-3.509-12.333-5.122
		c-3.51-0.853-7.02-1.802-10.435-3.035c-1.992,0-4.079,0-6.166,0c-6.617,0.333-18.969-1.827-23.906-0.569
		c1.233,2.277,17.455,2.182,17.93,3.699c-0.19,5.881-1.043,11.192-2.087,17.073c-2.561,6.07-2.372,13.468-7.684,18.116
		c-5.403,6.944-10.288,17.681-18.879,21.246c-2.087,2.086-5.028,3.604-7.969,4.173c-3.7,2.087-3.7,2.087-4.269,2.75
		c-0.569-0.19-1.138-0.379-1.802-0.569c-3.605,0.569-5.787,0.664-6.261-3.225c0.19-2.561,0.19-2.561,0.569-3.414
		c12.238-7.277,19.27-11.871,25.614-30.541c0.664-4.078,1.328-8.157,1.992-12.235c0.19-4.268,0.285-8.442,0.379-12.615
		c0.664-1.992,0.949-2.276,2.846-3.035c0.095-0.474,0.095-0.474-0.379-1.423c-3.131,0.379-3.131,0.379-6.546,1.233
		c-0.285,0.474-0.569,0.949-0.854,1.423c0.569,1.517,1.043,3.035,1.518,4.647c0,3.32,0,6.64,0,10.054
		c-0.854,4.647-1.708,9.39-2.656,14.132c-2.751,4.648-6.546,8.536-11.194,11.192c-1.328,0-2.656,0.095-4.079,0.19
		c-1.992-0.949-3.036-3.889-5.597-2.94c-1.803,2.371,0.664,6.829-1.328,8.821c-1.518-0.19-2.467-0.569-3.795-1.422
		c-0.854-1.802-1.707-3.509-2.562-5.217c-4.554,1.613-3.51,6.924-4.459,10.813c-0.474,0.379-0.949,0.759-1.518,1.138
		c0.095,0.474,0.19,0.948,0.285,1.517c1.897,1.233,4.079,2.087,4.554,4.458c-0.569,1.518-1.138,3.699-2.561,4.648
		c3.131,2.276,3.605,7.683,2.941,11.192c-0.854,0.379-2.277,0.948-2.656,1.802c-0.949,0.285-1.897,0.569-2.846,0.854
		c-3.131,2.845-4.459,4.268-5.882,8.157c-1.423,1.897-2.277,5.311-2.941,7.588c0.474,0.095,0.854,0.19,1.234,0.285
		c0.285-1.138,0.569-2.466,1.328-3.225c0.285-1.328,0.569-2.561,0.854-3.794c1.898-0.949,3.036-3.225,4.079-5.027
		c2.467-1.897,2.467-1.897,3.51-3.13c1.708-0.664,3.605-0.759,5.408-0.854c2.371,1.138,2.087,0.854,2.087,3.699
		c-1.138,0.759-2.277,1.518-3.415,2.276c-2.087,2.087-4.174,4.173-6.356,6.355c-1.328,3.889-3.226,7.588-3.795,11.666
		c0.19,1.992,0.379,4.079,0.569,6.165c0.474,1.707,1.518,3.794-0.19,4.932c-6.356-1.043-7.969-9.2-9.487-14.322
		c-1.303-10.798,0.056-15.464,6.736-23.143c1.518-1.328,2.561-1.802,2.846-3.794c-9.821-3.422-22.123-25.829-6.261-37.18
		c5.597-1.802,2.656,6.924,2.372,9.485c0.285,1.043,0.474,2.087,0.664,3.13c0.759,1.138,1.423,2.277,2.087,3.509
		c1.044,0.474,2.277,1.328,3.036,2.182c0.095-0.379,0.19-0.759,0.19-1.138c-1.992-0.949-2.941-4.932-3.32-7.114
		c-0.474-6.355,2.087-11.571,8.159-13.373c0.285-0.379,0.569-0.759,0.854-1.138c-3.042-2.241-6.954-1.51-10.639-0.003
		c-5.057,2.067-8.605,4.207-11.785,8.663c-3.832,5.366-4.073,9.733-3.06,14.352C267.714,329.559,271.431,332.268,275.15,337.162
		L275.15,337.162z M364.688,240.689c-0.913,0-1.654,0.741-1.654,1.654c0,0.913,0.741,1.654,1.654,1.654
		c0.913,0,1.654-0.741,1.654-1.654C366.342,241.43,365.601,240.689,364.688,240.689L364.688,240.689z M350.82,292.336
		c-0.106,0.642,0.146,1.222,0.561,1.293c0.416,0.072,0.839-0.39,0.946-1.034c0.107-0.641-0.144-1.221-0.559-1.291
		C351.351,291.231,350.927,291.694,350.82,292.336L350.82,292.336z M350.141,285.068c-0.213,1.284,0.29,2.444,1.122,2.586
		c0.832,0.144,1.678-0.782,1.89-2.068c0.214-1.282-0.289-2.441-1.119-2.582C351.203,282.86,350.354,283.785,350.141,285.068
		L350.141,285.068z M327.997,339.367c-0.773,0.401-1.188,1.141-0.924,1.651c0.263,0.51,1.106,0.599,1.881,0.198
		c0.774-0.399,1.188-1.139,0.924-1.648C329.614,339.056,328.772,338.966,327.997,339.367L327.997,339.367z M322.838,329.4
		c-0.773,0.401-1.188,1.141-0.924,1.651c0.263,0.51,1.106,0.599,1.881,0.198c0.774-0.399,1.188-1.139,0.924-1.648
		C324.455,329.089,323.612,328.999,322.838,329.4L322.838,329.4z M336.338,331.876c-1.158,0.601-1.777,1.706-1.382,2.469
		c0.394,0.763,1.655,0.895,2.813,0.296c1.157-0.598,1.775-1.703,1.381-2.466C338.755,331.412,337.495,331.278,336.338,331.876
		L336.338,331.876z M329.827,324.893c-0.537,0-0.973,0.436-0.973,0.973c0,0.537,0.436,0.973,0.973,0.973
		c0.537,0,0.973-0.436,0.973-0.973C330.8,325.329,330.364,324.893,329.827,324.893L329.827,324.893z M297.365,321.07
		c-0.822-0.766-1.774-1.323-3.012-1.422c-0.424,1.087-0.578,2.175-0.335,3.262C295.134,322.882,296.249,322.436,297.365,321.07
		L297.365,321.07z M307.405,366.47c2.372-3.13-0.379-7.303-1.897-10.434c0-2.561,1.328-4.268,0.285-6.734
		c-0.474-0.285-1.043-0.569-1.613-0.759c-1.233,1.043-1.707,3.889-2.087,5.407C302.093,358.123,303.136,364.667,307.405,366.47
		L307.405,366.47z M324.576,358.692c1.992-0.664,1.992-0.949,1.992-2.941c-1.138-3.414-1.233-6.924-2.087-10.338
		c-4.364,0.664-0.285,6.545-3.605,6.545c-1.043-1.043-0.569-3.225-1.328-4.742c-2.562,1.233-2.087,5.311-1.044,7.493
		C319.928,355.941,319.928,355.941,324.576,358.692L324.576,358.692z M301.144,347.216c1.423-4.268-3.226-10.054-4.839-13.753
		c-0.569-0.474-1.043-1.328-1.423-1.423c0,0.854-0.095,1.802-0.19,2.75C295.832,339.723,296.685,344.275,301.144,347.216
		L301.144,347.216z M312.433,344.37c3.32-2.182-2.561-6.545-2.182-1.613C310.821,343.706,311.485,344.086,312.433,344.37
		L312.433,344.37z M322.679,339.248c1.992-1.992,1.897-1.992,0.285-4.268C320.687,335.549,321.161,338.015,322.679,339.248
		L322.679,339.248z M316.608,338.869c1.707-1.707,2.751-3.794,0.285-5.027c-0.949,0.949-1.613,2.277-1.613,3.794
		C315.754,338.015,316.228,338.395,316.608,338.869L316.608,338.869z M307.405,338.205c0.379-0.759,0.474-0.759,0.285-1.707
		c-0.19-0.095-0.379-0.095-0.664-0.095c0,0.379-0.095,0.759-0.19,1.233C307.026,337.825,307.216,338.015,307.405,338.205
		L307.405,338.205z M328.94,335.549c0.759-0.19,1.518-0.379,2.182-0.569c0.854-1.707,1.043-3.13-0.569-4.268
		c-2.277,0.664-2.846,1.613-2.372,3.984C328.466,334.98,328.75,335.265,328.94,335.549L328.94,335.549z M284.163,331.755
		c0.19-0.19,0.285-0.285,0.379-0.379c-0.285-1.043-0.285-1.043-1.328-2.561c-3.51-2.277-4.554-7.114-8.064-9.2
		c-0.19,0.095-0.379,0.285-0.664,0.474c0,3.794,4.839,9.011,7.874,11.287C283.025,331.471,283.594,331.566,284.163,331.755
		L284.163,331.755z M336.624,330.048c1.803-1.328,3.51-3.32,1.898-5.596c-2.182-0.19-4.079-1.138-4.554,2.181
		C334.538,329.005,334.538,329.764,336.624,330.048L336.624,330.048z M346.111,327.772c0.285-0.285,0.569-0.569,0.759-0.759
		c-0.19-1.802-0.474-3.604-2.467-1.612c0,0.474-0.095,0.949-0.19,1.517C344.688,327.392,344.688,327.392,346.111,327.772
		L346.111,327.772z M344.403,322.839c0-1.897,0.475-3.13-1.992-3.13c-0.285,0.19-0.569,0.379-0.854,0.569
		c0.095,0.569,0.095,1.138,0.095,1.802C342.127,322.46,342.127,322.46,344.403,322.839L344.403,322.839z M352.278,322.65
		c2.087-1.233,4.364-4.363,1.707-6.26c-3.7,0-4.079,1.802-3.795,5.027C350.57,322.176,351.424,322.365,352.278,322.65
		L352.278,322.65z M335.296,320.753c0.474-0.095,0.949-0.19,1.328-0.19c0-0.19,0-0.379-0.095-0.474
		c-0.474-0.095-0.949-0.19-1.423-0.285C335.202,320.089,335.296,320.373,335.296,320.753L335.296,320.753z M346.111,317.244
		c0.569-0.19,1.138-0.379,1.613-0.569c0.664-1.233,0.19-2.086-0.19-3.13c-0.569-0.19-1.233-0.379-1.897-0.474
		C344.688,314.019,344.783,316.58,346.111,317.244L346.111,317.244z M307.405,317.054c0.854-1.518,0.095-3.699-1.897-3.035
		c0,0.569,0,1.233,0,1.897C306.172,316.295,306.836,316.674,307.405,317.054L307.405,317.054z M339.85,315.726
		c0.664-1.043,1.518-2.466,0.285-3.414c-1.897,0.285-2.561,1.138-1.992,3.035C338.712,315.441,339.281,315.536,339.85,315.726
		L339.85,315.726z M358.349,315.157c0.949-0.759,1.898-1.518,2.846-2.277c0-1.423,0.095-3.32-1.233-4.173
		c-3.415,0-4.269,1.897-2.751,5.501C357.59,314.493,357.97,314.778,358.349,315.157L358.349,315.157z M352.278,312.311
		c1.518-2.276,0.854-4.363-1.423-5.501c-0.19,0.095-0.379,0.19-0.664,0.285c-0.379,1.517-0.664,3.604,0.19,4.837
		C351.044,312.027,351.708,312.122,352.278,312.311L352.278,312.311z M344.403,310.225c0.475-0.759,0.949-1.518,1.328-2.181
		c-0.285-0.854-0.664-1.707-1.044-2.561c-0.569,0.19-1.233,0.379-1.897,0.664C341.653,308.517,342.601,309.371,344.403,310.225
		L344.403,310.225z M364.61,308.517c1.992-1.612,3.605-4.173,1.897-6.734l0.001-0.062c0.051,0.019,0.103,0.033,0.156,0.044
		c0.92,0.184,1.856-0.999,2.092-2.647c0.091-0.63,0.064-1.237-0.055-1.756c0.03-0.075,0.058-0.15,0.083-0.226
		c-0.854-1.802-0.854-2.371-3.036-1.992c-0.949,1.802-1.897,3.509-0.38,5.027c0,0.569,0,1.138,0,1.802
		c-3.131,0.569-4.553,1.423-3.415,4.932C362.808,307.759,363.567,308.138,364.61,308.517L364.61,308.517z M356.072,305.862
		c2.182-0.664,1.802-3.984,0.474-5.311c-0.379-0.19-0.759-0.285-1.233-0.379C353.321,302.163,352.752,305.198,356.072,305.862
		L356.072,305.862z M348.957,305.293c0.759-1.802,1.328-3.414,0.095-5.122c-0.759,0.095-1.518,0.19-2.277,0.285
		c-0.854,1.328-0.664,2.94,0.285,4.268C347.724,304.913,348.388,305.103,348.957,305.293L348.957,305.293z M356.831,299.412
		c2.846-0.569,5.882-4.743,1.992-6.165c-0.664-0.095-1.423-0.095-2.182-0.095c-0.854,1.707-1.328,2.371-1.328,4.363
		C356.452,298.558,356.452,298.558,356.831,299.412L356.831,299.412z M350.57,297.61c0.379-0.853,0.19-1.138,0.095-2.181
		c-0.474,0-0.949,0-1.423,0c0,0.569,0,1.138-0.095,1.802C349.621,297.325,350.096,297.42,350.57,297.61L350.57,297.61z
		 M372.864,293.436c1.708-0.664,3.036-3.793,2.182-5.501c-2.467,0.379-4.269,1.897-4.269,4.553
		C371.536,292.773,372.2,293.057,372.864,293.436L372.864,293.436z M364.421,292.299c0.285-0.379,0.569-0.664,0.759-0.949
		c-0.285-1.423-0.285-1.423-0.664-1.897c-0.474,0-1.044,0.095-1.613,0.19c0,0.474-0.095,1.043-0.19,1.612
		C363.282,291.54,363.852,291.919,364.421,292.299L364.421,292.299z M357.021,291.729c0.379-1.328,1.233-2.181-0.095-3.32
		c-0.569,0.19-1.138,0.379-1.708,0.569C355.218,290.781,355.503,290.876,357.021,291.729L357.021,291.729z M369.354,287.746
		c3.7-1.802,1.992-5.975-2.087-5.406c-0.57,1.138-0.379,3.983,0.19,5.216C368.12,287.556,368.784,287.651,369.354,287.746
		L369.354,287.746z M359.867,285.849c0.474-0.285,0.854-0.569,1.233-0.854c1.708-5.122-4.648-8.916-4.648-1.328
		C357.685,285.185,358.064,285.375,359.867,285.849L359.867,285.849z M375.52,282.245c2.182-1.518,1.802-1.802,1.613-4.363
		c-1.423-1.423-2.751-2.182-4.743-0.949c-0.38,1.707,0.095,3.699,1.138,5.027C374.192,282.055,374.856,282.15,375.52,282.245
		L375.52,282.245z M364.421,279.779c3.984-2.371,3.415-6.639-0.949-7.683c-2.846,0.949-1.613,4.268-0.949,6.45
		C363.188,278.925,363.852,279.304,364.421,279.779L364.421,279.779z M355.313,277.787c0.949-1.992,2.846-3.889,1.328-6.165
		c-3.984-1.328-3.89,2.466-3.605,5.406C353.416,277.408,353.416,277.408,355.313,277.787L355.313,277.787z M378.556,262.232
		c1.613-1.233,3.32-1.802,4.174-3.604c-1.613-1.613-5.882,0.474-7.02,2.181c-1.233,0.19-2.467,0.379-3.7,0.569
		c0,0.095,0,0.285-0.095,0.474C374.192,261.947,376.374,262.042,378.556,262.232L378.556,262.232z M331.122,258.533
		c-0.474-3.13-2.277-3.32-4.933-4.363c-0.854,0-0.949,0.664-1.328,1.233c0.759,1.517,1.803,2.466,3.51,2.94
		C329.32,258.343,330.269,258.438,331.122,258.533L331.122,258.533z M366.508,249.617c4.554-1.233,6.831-5.596,4.364-9.959
		c-3.795-1.897-9.392-2.94-11.574,1.518c0,2.371,0.664,5.311,2.372,7.019C363.282,248.669,364.895,249.143,366.508,249.617
		L366.508,249.617z"/>
	<path style="fill-rule:evenodd;clip-rule:evenodd;fill:#0B0D0F;" d="M250,31c120.93,0,219,98.07,219,219s-98.07,219-219,219
		S31,370.93,31,250S129.07,31,250,31L250,31z M250,34.652c118.913,0,215.348,96.435,215.348,215.348S368.913,465.348,250,465.348
		S34.652,368.913,34.652,250S131.087,34.652,250,34.652L250,34.652z"/>
	<path style="fill:#0B0D0F;" d="M250,48.611h0.003v0.005c55.604,0.001,105.951,22.545,142.394,58.988
		c36.442,36.442,58.985,86.787,58.987,142.39h0.005V250v0.003h-0.005c-0.001,55.604-22.545,105.951-58.988,142.394
		c-36.442,36.442-86.787,58.985-142.39,58.987v0.005H250h-0.003v-0.005c-55.604-0.001-105.951-22.545-142.394-58.988
		c-36.442-36.442-58.985-86.787-58.987-142.39h-0.005V250v-0.003h0.005c0.001-55.604,22.545-105.951,58.988-142.394
		c36.442-36.442,86.787-58.985,142.39-58.987v-0.005H250L250,48.611z M250.003,51.241v0.005H250h-0.006v-0.005
		c-54.869,0.001-104.555,22.254-140.527,58.225c-35.972,35.972-58.226,85.661-58.226,140.532h0.005V250v0.006h-0.005
		c0.001,54.869,22.254,104.555,58.225,140.527c35.972,35.972,85.661,58.226,140.532,58.227v-0.005H250h0.006v0.005
		c54.869-0.001,104.555-22.254,140.527-58.225c35.972-35.972,58.226-85.661,58.226-140.531h-0.005V250v-0.006h0.005
		c-0.001-54.869-22.254-104.555-58.225-140.527C354.562,73.495,304.873,51.241,250.003,51.241L250.003,51.241z"/>
	<polygon style="fill:#0B0D0F;" points="86.49,305.593 92.778,314.248 102.952,310.942 96.664,319.596 102.952,328.251 
		92.778,324.945 86.49,333.6 86.49,322.902 76.316,319.597 86.49,316.291 86.49,305.593 	"/>
	<polygon style="fill:#0B0D0F;" points="413.51,305.593 407.222,314.248 397.048,310.942 403.336,319.596 397.048,328.251 
		407.222,324.945 413.51,333.6 413.51,322.902 423.684,319.597 413.509,316.291 413.51,305.593 	"/>
	<polygon style="fill:#0B0D0F;" points="251.879,129.814 251.879,240.881 248.121,240.881 248.121,129.814 251.879,129.814 	"/>
	<path style="fill:#0B0D0F;" d="M241.325,120.657l0.302,0.002v0c0.434,0.001,0.848,0.25,1.04,0.671l7.186,15.641
		c0.12,0.215,0.172,0.469,0.133,0.732c-0.094,0.629-0.681,1.063-1.31,0.968c-9.163-1.392-18.345-0.173-27.536,2.717
		c-9.239,2.905-18.489,7.493-27.742,12.819c-13.124,9.975-23.56,11.934-33.512,13.801c-6.992,1.312-13.74,2.578-20.974,6.652
		l0-0.001c-0.39,0.218-0.889,0.196-1.265-0.094c-0.502-0.388-0.595-1.11-0.207-1.612c4.502-5.839,12.568-9.579,21.524-13.731
		c8.949-4.149,18.811-8.722,26.607-16.139l0.006-0.005l0,0c1.371-1.508,2.874-3.01,4.508-4.468c0.285-0.254,0.614-0.542,0.993-0.866
		c0.308-0.264,0.651-0.55,1.028-0.86l0,0l0.003-0.003c7.716-6.327,18.285-12,31.898-14.649c2.637-0.513,5.407-0.914,8.312-1.185
		C235.202,120.78,238.204,120.644,241.325,120.657L241.325,120.657z M216.935,126.349c1.22,1.371,2.385,3.082,3.372,5.032
		c1.261,2.497,2.032,4.994,2.3,7.163c0.313-0.09,0.624-0.176,0.937-0.262c0.594-1.799,0.933-3.89,0.933-6.124
		c0-2.776-0.525-5.336-1.409-7.384C220.944,125.227,218.901,125.755,216.935,126.349L216.935,126.349z M220.278,139.247
		c-0.189-2.125-0.867-4.49-2.044-6.818c-1.064-2.104-2.394-3.899-3.821-5.267c-8.477,2.903-15.401,7.031-20.844,11.495l-0.006,0.005
		c-0.307,0.251-0.637,0.528-0.988,0.829c-0.282,0.241-0.604,0.524-0.958,0.839c-1.628,1.452-3.091,2.91-4.392,4.347l-0.055,0.058
		l0.001,0.001l-0.01,0.01l-0.004,0.005l-0.008,0.007l-0.015,0.014c-8.07,7.669-18.102,12.321-27.206,16.541
		c-5.831,2.703-11.271,5.228-15.476,8.225c5.08-1.925,9.984-2.847,15.011-3.79c9.702-1.821,19.877-3.73,32.588-13.405
		c0.054-0.041,0.112-0.077,0.171-0.107C201.568,146.854,210.918,142.211,220.278,139.247L220.278,139.247z M225.458,124.302
		c0.835,2.121,1.338,4.862,1.338,7.856c0,1.958-0.215,3.807-0.598,5.446c6.905-1.635,13.817-2.253,20.737-1.484l-6.05-13.167
		c-2.889,0.001-5.676,0.133-8.358,0.383C230.098,123.563,227.742,123.888,225.458,124.302L225.458,124.302z"/>
	<path style="fill-rule:evenodd;clip-rule:evenodd;fill:#0B0D0F;" d="M191.316,139.06c0.073,1.535,0.319,3.192,0.754,4.889
		c0.799,3.117,2.088,5.806,3.549,7.679c0.707-0.395,1.414-0.785,2.12-1.17c-1.464-1.793-2.696-4.248-3.423-7.084
		c-0.568-2.216-0.753-4.379-0.606-6.304c-0.294,0.232-0.585,0.466-0.87,0.7C192.318,138.197,191.811,138.627,191.316,139.06
		L191.316,139.06z"/>
	<path style="fill-rule:evenodd;clip-rule:evenodd;fill:#0B0D0F;" d="M186.432,143.843c0.273,1.092,0.638,2.221,1.098,3.357
		c1.131,2.792,2.636,5.154,4.216,6.808c0.333-0.245,0.667-0.495,1.003-0.751l1.03-0.59c-1.598-1.568-3.053-3.751-4.1-6.336
		c-0.625-1.544-1.047-3.087-1.272-4.556C187.716,142.463,187.058,143.153,186.432,143.843L186.432,143.843z"/>
	<polygon style="fill:#0B0D0F;" points="158.322,166.292 249.799,204.172 249.05,205.993 157.573,168.114 158.322,166.292 	"/>
	<polygon style="fill-rule:evenodd;clip-rule:evenodd;fill:#0B0D0F;" points="156.198,162.271 157.947,167.203 141.524,171.325 
		143.71,168.203 156.198,162.271 	"/>
	<path style="fill:#0B0D0F;" d="M258.675,120.657l-0.302,0.002v0c-0.434,0.001-0.849,0.25-1.04,0.671l-7.186,15.641
		c-0.12,0.215-0.172,0.469-0.133,0.732c0.094,0.629,0.681,1.063,1.31,0.968c9.163-1.392,18.345-0.173,27.536,2.717
		c9.239,2.905,18.489,7.493,27.742,12.819c13.124,9.975,23.56,11.934,33.512,13.801c6.992,1.312,13.74,2.578,20.974,6.652l0-0.001
		c0.389,0.218,0.889,0.196,1.265-0.094c0.502-0.388,0.595-1.11,0.207-1.612c-4.502-5.839-12.568-9.579-21.524-13.731
		c-8.949-4.149-18.811-8.722-26.607-16.139l-0.006-0.005l0,0c-1.371-1.508-2.874-3.01-4.508-4.468
		c-0.285-0.254-0.614-0.542-0.993-0.866c-0.308-0.264-0.651-0.55-1.028-0.86l0,0l-0.003-0.003c-7.716-6.327-18.285-12-31.898-14.649
		c-2.637-0.513-5.407-0.914-8.312-1.185C264.798,120.78,261.796,120.644,258.675,120.657L258.675,120.657z M283.065,126.349
		c-1.22,1.371-2.385,3.082-3.372,5.032c-1.261,2.497-2.032,4.994-2.3,7.163c-0.313-0.09-0.624-0.176-0.937-0.262
		c-0.594-1.799-0.933-3.89-0.933-6.124c0-2.776,0.525-5.336,1.409-7.384C279.056,125.227,281.099,125.755,283.065,126.349
		L283.065,126.349z M279.722,139.247c0.189-2.125,0.867-4.49,2.044-6.818c1.064-2.104,2.394-3.899,3.821-5.267
		c8.477,2.903,15.401,7.031,20.844,11.495l0.006,0.005c0.307,0.251,0.637,0.528,0.988,0.829c0.282,0.241,0.604,0.524,0.958,0.839
		c1.627,1.452,3.091,2.91,4.392,4.347l0.055,0.058l-0.001,0.001l0.01,0.01l0.005,0.005l0.008,0.007l0.015,0.014
		c8.07,7.669,18.102,12.321,27.206,16.541c5.831,2.703,11.271,5.228,15.476,8.225c-5.081-1.925-9.984-2.847-15.011-3.79
		c-9.702-1.821-19.877-3.73-32.588-13.405c-0.055-0.041-0.112-0.077-0.171-0.107C298.432,146.854,289.082,142.211,279.722,139.247
		L279.722,139.247z M274.542,124.302c-0.835,2.121-1.338,4.862-1.338,7.856c0,1.958,0.215,3.807,0.598,5.446
		c-6.905-1.635-13.817-2.253-20.737-1.484l6.05-13.167c2.889,0.001,5.676,0.133,8.358,0.383
		C269.902,123.563,272.258,123.888,274.542,124.302L274.542,124.302z"/>
	<path style="fill-rule:evenodd;clip-rule:evenodd;fill:#0B0D0F;" d="M308.684,139.06c-0.073,1.535-0.319,3.192-0.754,4.889
		c-0.799,3.117-2.088,5.806-3.549,7.679c-0.707-0.395-1.414-0.785-2.12-1.17c1.464-1.793,2.696-4.248,3.423-7.084
		c0.568-2.216,0.753-4.379,0.606-6.304c0.294,0.232,0.585,0.466,0.87,0.7C307.682,138.197,308.189,138.627,308.684,139.06
		L308.684,139.06z"/>
	<path style="fill-rule:evenodd;clip-rule:evenodd;fill:#0B0D0F;" d="M313.568,143.843c-0.273,1.092-0.638,2.221-1.098,3.357
		c-1.13,2.792-2.636,5.154-4.216,6.808c-0.333-0.245-0.667-0.495-1.003-0.751l-1.03-0.59c1.598-1.568,3.053-3.751,4.1-6.336
		c0.625-1.544,1.047-3.087,1.272-4.556C312.284,142.463,312.942,143.153,313.568,143.843L313.568,143.843z"/>
	<polygon style="fill:#0B0D0F;" points="341.678,166.292 250.201,204.172 250.95,205.993 342.427,168.114 341.678,166.292 	"/>
	<polygon style="fill-rule:evenodd;clip-rule:evenodd;fill:#0B0D0F;" points="343.802,162.271 342.053,167.203 358.476,171.325 
		356.29,168.203 343.802,162.271 	"/>
	<path style="fill:#0B0D0F;" d="M238.443,121.939l10.236-17.105c0.436-0.729,1.381-0.966,2.11-0.531
		c0.241,0.144,0.429,0.344,0.556,0.574l10.211,17.062c0.301,0.503,0.28,1.109,0,1.58l-10.236,17.106
		c-0.436,0.729-1.381,0.966-2.11,0.531c-0.226-0.136-0.405-0.319-0.531-0.531l-10.236-17.106
		C238.142,123.016,238.163,122.41,238.443,121.939L238.443,121.939L238.443,121.939z"/>
	<polygon style="fill:#FFFFFF;" points="250,108.62 241.557,122.729 250,136.839 258.443,122.729 250,108.62 	"/>
	<path style="fill-rule:evenodd;clip-rule:evenodd;fill:#0B0D0F;" d="M264.359,394.816c11.132-49.808-16.283-59.141-2.188-114.835
		c0.235-0.929,0.449-1.866,0.639-2.811c0.191-0.945,0.359-1.898,0.505-2.858c0.411-2.711,0.54-5.255,0.581-7.673
		c0.177-10.469,0.337-18.708,8.94-25.858c2.973-2.47,6.286-4.641,9.866-6.58c29.788-16.143,77.965-16.342,101.271-41.08
		c-3.509-8.25-7.759-16.109-12.664-23.496c-18.766,34.241-90.913,18.094-121.715,57.016
		c-31.502-41.593-101.151-24.05-120.863-57.075c-4.884,7.347-9.118,15.163-12.621,23.365
		c40.312,35.158,78.805,16.265,109.286,48.792c10.165,9.483,12.298,21.677,10.358,35.447c-2.145,15.227-4.198,27.835-3.995,42.073
		c0.126,8.911,0.35,16.649,3.753,24.71c5.611,13.285,7.093,34.574-1.298,50.713c5.185,0.56,10.451,0.849,15.784,0.849v-0.005H250
		h0.006v0.005C254.849,395.517,259.637,395.279,264.359,394.816L264.359,394.816z"/>
	<path style="fill:#0B0D0F;" d="M250,101.853h0.003v0.005c40.905,0.001,77.941,16.585,104.749,43.393
		c26.806,26.806,43.389,63.841,43.391,104.744h0.005V250v0.003h-0.005c-0.001,40.905-16.585,77.941-43.393,104.749
		c-26.806,26.806-63.841,43.39-104.744,43.391v0.005H250h-0.003v-0.005c-40.905-0.001-77.941-16.585-104.749-43.393
		c-26.806-26.806-43.39-63.841-43.391-104.744h-0.005V250v-0.003h0.005c0.001-40.905,16.585-77.941,43.393-104.749
		c26.806-26.806,63.841-43.389,104.744-43.391v-0.005H250L250,101.853z M250.003,104.482v0.005H250h-0.006v-0.005
		c-40.168,0.001-76.545,16.293-102.881,42.629c-26.337,26.337-42.631,62.715-42.631,102.886h0.005V250v0.006h-0.005
		c0.001,40.168,16.293,76.545,42.629,102.881c26.337,26.337,62.715,42.631,102.886,42.631v-0.005H250h0.006v0.005
		c40.168-0.001,76.545-16.293,102.881-42.629c26.337-26.337,42.631-62.715,42.631-102.886h-0.005V250v-0.006h0.005
		c-0.001-40.168-16.293-76.545-42.629-102.881C326.552,120.776,290.173,104.483,250.003,104.482L250.003,104.482z"/>
	<path style="fill-rule:evenodd;clip-rule:evenodd;fill:#0B0D0F;" d="M315.602,79.448c64.489,24.83,111.35,85.184,116.595,157.075
		l-4.399,3.942c-0.211-3.987-0.553-7.939-1.023-11.852c-2.601,0.79-5.227,1.59-7.9,2.027c-2.403,0.394-4.696-0.758-6.881-3.455
		c-0.671-0.872-1.525-2.26-2.539-4.149l-3.007,5.967l-1.845,3.976l-0.573,1.403c-1.013,2.657-1.698,4.515-2.041,5.59l-2.068-3.717
		c-0.061-0.372,0.775-2.564,2.512-6.54c1.908-4.368,3.79-8.241,5.661-11.639c2.376-4.081,4.235-6.24,5.598-6.464
		c0.429-0.07,0.832,0.119,1.206,0.548c0.391,0.536,0.645,1.131,0.747,1.751l1.216,7.421l8.638-1.505
		c-0.987-5.778-2.252-11.46-3.783-17.033l-26.253,7.544l0.75-10.832l22.521-6.463c-3.415-10.114-7.713-19.821-12.805-29.03
		l-7.363,4.333c0.763,0.779,1.279,1.35,1.54,1.716c1.15,1.322,1.949,2.352,2.395,3.108c1.688,2.859,2.579,6.042,2.666,9.534
		c0.08,3.766-0.969,6.302-3.141,7.584c-1.639,0.968-3.839,1.308-6.6,1.02c-0.781-0.143-1.433-0.279-1.94-0.397
		c-0.516-0.133-0.981-0.255-1.394-0.366l-1.179-8.953c0.466,0.788,1.793,1.631,3.99,2.521c2.632,1.134,4.68,1.259,6.145,0.394
		c1.365-0.805,1.043-2.908-0.973-6.323c-1.369-2.318-2.972-4.123-4.802-5.398c-0.735-0.503-1.483-0.896-2.234-1.182l-10.267,6.06
		l-1.707-10.475l4.285-2.529c-0.81-0.669-1.552-1.356-2.253-2.088c-1.634-1.723-2.972-3.476-4.021-5.254
		c-1.734-2.937-2.584-6.164-2.553-9.704c0.023-3.535,0.97-5.846,2.817-6.936c1.639-0.968,3.811-0.311,6.505,1.954
		c2.704,2.28,5.063,5.118,7.07,8.518l-1.124,7.562c0.125-0.074-0.356-1.04-1.46-2.91c-1.697-2.875-3.38-5.215-5.07-7.032
		c-2.302-2.455-4.139-3.287-5.504-2.482c-0.957,0.565-1.228,1.475-0.812,2.73c0.21,0.585,0.78,1.665,1.72,3.257
		c1.569,2.658,3.739,5.004,6.518,7.031c0.877,0.67,2.072,1.383,3.6,2.147l10.121-5.959c-6.761-10.769-14.639-20.764-23.477-29.82
		l-2.644,3.253c-0.39,0.48-0.92,0.992-1.474,1.64c-0.554,0.647-0.916,1.051-1.073,1.209c-1.715,1.729-4.248,2.141-7.6,1.239
		c-1.055-0.312-2.561-0.935-4.491-1.869l1.065,6.596l0.839,4.302l0.359,1.473c0.738,2.746,1.274,4.652,1.627,5.724l-3.855-1.796
		c-0.267-0.266-0.877-2.53-1.803-6.77c-1.017-4.657-1.766-8.897-2.244-12.747c-0.469-4.699-0.231-7.538,0.742-8.519
		c0.306-0.308,0.743-0.393,1.297-0.264c0.631,0.205,1.187,0.537,1.632,0.98l5.339,5.296l5.921-5.954
		c-5.346-4.96-10.995-9.595-16.919-13.875l-14.072,22.781l-6.68-8.495l5.701-9.276l-1.737-0.875
		c-0.387-0.192-0.765-0.401-1.163-0.646l-0.978-0.601l-0.948-0.651l-0.918-0.632c-1.392-1.026-2.852-2.626-4.405-4.794l-0.2-0.361
		l-0.281-0.434l-0.307-0.529c-0.62,0.22-1.042,0.324-1.255,0.329c-0.921,0.228-1.678,0.33-2.273,0.304
		c-0.28-0.025-0.778-0.07-1.506-0.155c-0.733-0.076-1.384-0.181-1.939-0.273l-1.791-0.409l2.076,6.391l3.601,10.593l-5.097-1.443
		c-0.336-0.206-1.136-2.229-2.436-6.079c-1.432-4.112-2.554-7.909-3.374-11.373c-1.006-4.258-1.188-6.91-0.535-7.972
		c0.562-0.914,1.579-0.924,3.047-0.022l6.407,3.937l3.477-5.685c-3.45-1.648-6.959-3.19-10.529-4.617L315.602,79.448L315.602,79.448
		z M255.382,82.113c-1.065,0.659-2.418,1.331-4.062,2.017l-2.575,1.049c-0.37-0.527-0.994-1.027-1.818-1.505
		c-1.08-0.656-2.522-1.07-4.346-1.242c-1.662-0.157-3.188-0.014-4.577,0.439c-1.34,0.499-2.055,1.293-2.147,2.382
		c-0.141,1.669,1.045,2.972,3.578,3.919c1.729,0.645,4.033,1.099,6.911,1.372l0.84,0.08c0.375,0.035,0.715,0.067,0.984,0.093
		c0.625,0.059,1.018,0.096,1.161,0.11l6.873,8.437l4.762-1.345l-7.623-7.656c2.836-0.512,5.269-1.585,7.317-3.216
		c2.281-1.826,3.536-4.108,3.766-6.825c0.278-3.288-0.972-6.403-3.75-9.353c-2.981-3.103-6.706-4.871-11.175-5.294
		c-3.307-0.313-6.128,0.036-8.466,1.036c-2.337,0.999-3.591,2.399-3.744,4.211c-0.228,2.697,2.537,5.38,8.295,8.028
		c4.373,1.973,7.454,3.044,9.224,3.211L255.382,82.113L255.382,82.113z M275.423,73.751l-3.96,22.192l9.379,5.47l4.625-25.927
		c3.309,0.67,6.586,1.43,9.825,2.28l-1.594-5.186c-9.863-2.423-20.039-4.05-30.456-4.8l2.833,4.881
		C269.216,72.944,272.332,73.308,275.423,73.751L275.423,73.751z M153.131,123.452l6.617,1.109l15.095-17.908l3.155,5.389
		l10.667-1.777l-12.948-22.12c10.479-4.819,21.507-8.651,32.963-11.376l0.863,3.956l-11.132,2.428
		c-2.309,0.504-4.071,1.514-5.268,3.016c-1.197,1.502-1.627,3.022-1.29,4.569c0.577,2.644,3.151,4.749,7.743,6.322
		c4.592,1.573,9.079,1.877,13.48,0.917l1.019-0.222c0.418-0.091,0.854-0.186,1.273-0.278l1.193-0.383l1.157-0.376l5.021,4.588
		l6.875-1.499l-7.585-4.809c0.635-0.497,1.108-0.949,1.435-1.369c0.953-1.224,1.257-2.624,0.915-4.19
		c-0.222-1.018-1.092-1.69-2.612-2.015c-1.521-0.335-3.154-0.307-4.9,0.074c-1.491,0.325-2.715,0.828-3.689,1.522
		c-0.927,0.726-1.281,1.552-1.083,2.462c0.047,0.215,0.079,0.362,0.119,0.456c0.04,0.094,0.182,0.309,0.412,0.669l0.294,0.388
		l0.293,0.295c-1.196,0.456-2.43,0.827-3.667,1.097c-2.619,0.571-4.834,0.726-6.646,0.455c-2.182-0.304-3.423-1.11-3.712-2.432
		c-0.31-1.42-0.114-2.622,0.583-3.615c0.698-0.993,1.974-1.693,3.867-2.105l15.824-3.451l-1.823-8.358
		c4.925-0.906,9.921-1.608,14.98-2.098l-2.554-4.401c-4.962,0.539-9.863,1.276-14.697,2.204l-4.29-1.915
		c-4.306-1.859-7.932-3.266-10.828-4.246c-1.197-0.432-2.414-0.669-3.666-0.707c-1.235-0.043-2.625,0.169-4.153,0.632L181.048,67.8
		l5.275,3.903c0.208-0.147,0.593-0.346,1.151-0.62c0.539-0.268,0.998-0.48,1.36-0.633c1.016-0.421,2.189-0.839,3.54-1.248
		c2.219-0.673,4.124-1.104,5.715-1.294c1.594-0.18,2.849-0.07,3.771,0.35l8.747,3.308c-27.191,5.978-52.114,18.016-73.28,34.624
		v0.026l5.618,1.513c1.598-1.205,3.219-2.384,4.859-3.536l4.836,8.261c1.117,0.096,2.163,0.178,3.163,0.253
		c0.996,0.066,1.758,0.09,2.273,0.08c2.653-0.063,4.934-0.381,6.843-0.95L153.131,123.452L153.131,123.452z M166.64,92.637
		l4.594,7.848c-1.797,3.324-4.737,6.333-8.858,9.025l-6.312-10.782C159.513,96.581,163.04,94.549,166.64,92.637L166.64,92.637z
		 M257.984,75.845c-0.048,0.57-0.122,1.025-0.222,1.354c-0.101,0.339-0.177,0.609-0.232,0.819l-0.295,1.152l-0.295,0.926
		c-0.257,0.058-0.529,0.074-0.851,0.043c-1.394-0.132-4.025-1.192-7.857-3.175c-2.635-1.449-3.893-2.758-3.794-3.928
		c0.083-0.977,0.742-1.746,1.997-2.304c1.238-0.57,2.785-0.763,4.644-0.587c2.396,0.227,4.199,0.849,5.374,1.862
		C257.605,73.09,258.109,74.369,257.984,75.845L257.984,75.845z M67.659,238.572c2.799-45.315,22.13-86.158,52.028-116.588h6.583
		c-2.485,2.402-4.899,4.877-7.241,7.419l2.3,1.122c0.489,0.378,1.092,0.799,1.808,1.263c0.705,0.478,1.155,0.781,1.331,0.916
		c1.925,1.491,2.646,3.954,2.161,7.39c-0.18,1.086-0.614,2.656-1.306,4.686l6.416-1.865l4.167-1.359l1.418-0.537
		c2.635-1.07,4.461-1.834,5.481-2.316l-1.311,4.046c-0.23,0.298-2.404,1.18-6.497,2.619c-4.497,1.58-8.614,2.843-12.376,3.789
		c-4.605,1.042-7.453,1.153-8.545,0.308c-0.344-0.266-0.481-0.689-0.421-1.256c0.125-0.652,0.388-1.243,0.772-1.74l4.602-5.947
		l-5.809-4.495c-4.406,5.281-8.511,10.822-12.29,16.595l22.576,11.568l-8.12,7.414l-11.281-5.78l-5.656,11.037
		c-0.867,1.693-1.328,3.292-1.4,4.807c-0.062,1.521,0.341,2.514,1.235,2.972c1.083,0.555,2.415,0.753,3.994,0.575
		c1.579-0.179,3.415-0.711,5.524-1.606c3.627-1.529,5.589-2.581,5.9-3.188l-1.042,4.447c-1.572,0.949-2.934,1.763-4.103,2.415
		c-1.152,0.639-2.197,1.173-3.133,1.601c-5.218,2.408-8.88,3.072-10.978,1.997c-0.602-0.309-1.003-0.796-1.204-1.443
		c-0.099-0.294-0.243-1.093-0.423-2.395l-4.87,9.503l-4.574-0.691l16.589-32.375l-4.343-2.225
		c-7.994,13.869-14.173,28.917-18.211,44.816l1.597-0.612c1.605-0.538,2.922-0.654,3.955-0.365c1.293,0.362,2.236,1.222,2.833,2.601
		c0.134,0.131,0.244,0.385,0.314,0.74c1.308-1.087,2.248-1.793,2.83-2.115c2.2-1.229,4.237-1.59,6.089-1.072
		c1.944,0.544,3.229,2.227,3.868,5.033c0.625,2.821,0.439,6.031-0.572,9.643c-1.258,4.493-3.9,8.413-7.936,11.756
		c-2.851,2.444-6.234,4.386-10.125,5.85c-0.683,0.26-1.295,0.487-1.837,0.683v-4.293c1.194-0.366,2.761-1.006,4.701-1.924
		c5.133-2.532,8.36-6.14,9.671-10.823c0.73-2.61,0.875-4.992,0.426-7.149c-0.44-2.154-1.3-3.42-2.575-3.777
		c-1.126-0.315-2.377,0.248-3.758,1.67l0.148,1.588c0.074,0.99,0.075,1.847,0.017,2.558c-0.099,1.463-0.347,2.922-0.753,4.374
		l-6.384,3.953c0.019-0.069,0.087-0.311,0.198-0.709l0.271-0.967c0.803-2.869,1.324-5.482,1.557-7.858
		c0.272-3.409-0.222-5.299-1.487-5.653c-0.624-0.175-1.633-0.01-3.005,0.519l-1.038,0.483c-1.885,8.25-3.197,16.718-3.891,25.361
		L67.659,238.572L67.659,238.572z M345.751,99.884c-3.676-2.35-7.444-4.567-11.296-6.648c-0.614,2.242-1.244,3.738-2.285,5.431
		l-0.851,0.974c-0.401,0.343-0.797,0.542-1.142,0.591c0.225,0.252,1,0.909,2.361,1.984c0.627,0.522,1.082,0.88,1.362,1.075
		c0.296,0.204,0.734,0.485,1.33,0.851c1.651,1.015,3.195,1.691,4.656,2.056l1.796,0.196L345.751,99.884L345.751,99.884z"/>
</g>
</svg>
